<?xml version="1.0" encoding="utf-8"?>
<!-- Generator: Adobe Illustrator 16.0.0, SVG Export Plug-In . SVG Version: 6.00 Build 0)  -->
<!DOCTYPE svg PUBLIC "-//W3C//DTD SVG 1.1//EN" "http://www.w3.org/Graphics/SVG/1.1/DTD/svg11.dtd">
<svg version="1.1" id="Layer_1" xmlns="http://www.w3.org/2000/svg" xmlns:xlink="http://www.w3.org/1999/xlink" x="0px" y="0px"
	 width="528px" height="527px" viewBox="0 0 528 527" enable-background="new 0 0 528 527" xml:space="preserve">
<g>
	<path fill="#FFFDFE" d="M204.174,135.93c0,12.97-2.406,24.449-7.216,34.435c-4.811,9.987-11.646,17.675-20.506,23.063
		s-18.953,8.084-30.279,8.084s-21.374-2.604-30.142-7.81c-8.769-5.207-15.605-12.65-20.506-22.333
		c-4.902-9.682-7.476-20.794-7.718-33.339v-7.489c0-13.03,2.389-24.525,7.17-34.481c4.779-9.956,11.63-17.643,20.551-23.063
		c8.92-5.419,19.074-8.13,30.462-8.13c11.265,0,21.312,2.681,30.142,8.038c8.829,5.359,15.695,12.986,20.597,22.881
		c4.901,9.896,7.383,21.236,7.444,34.023V135.93z M171.565,130.359c0-13.213-2.208-23.246-6.622-30.097
		c-4.416-6.851-10.732-10.275-18.953-10.275c-16.076,0-24.57,12.057-25.484,36.17l-0.091,9.773c0,13.031,2.161,23.049,6.485,30.051
		c4.323,7.003,10.747,10.504,19.273,10.504c8.098,0,14.34-3.439,18.725-10.321c4.384-6.881,6.606-16.775,6.667-29.686V130.359z"/>
	<path fill="#FFFDFE" d="M328.305,154.655c-0.428,9.257-2.924,17.432-7.49,24.524c-4.566,7.095-10.977,12.591-19.227,16.487
		c-8.252,3.897-17.676,5.846-28.271,5.846c-17.477,0-31.238-5.693-41.285-17.081c-10.047-11.386-15.071-27.462-15.071-48.227v-6.577
		c0-13.03,2.268-24.433,6.805-34.206c4.535-9.773,11.066-17.323,19.592-22.652c8.524-5.328,18.389-7.992,29.594-7.992
		c16.136,0,29.106,4.247,38.911,12.741c9.803,8.495,15.375,20.202,16.715,35.12h-31.969c-0.244-8.098-2.283-13.913-6.119-17.445
		c-3.838-3.531-9.684-5.298-17.538-5.298c-7.978,0-13.824,2.984-17.537,8.951c-3.715,5.969-5.663,15.498-5.846,28.589v9.408
		c0,14.189,1.781,24.328,5.343,30.416c3.563,6.09,9.697,9.134,18.405,9.134c7.368,0,13.001-1.735,16.897-5.206
		s5.967-8.981,6.211-16.532H328.305z"/>
	<path fill="#FFFDFE" d="M445.219,91.448h-39.915v108.237h-32.061V91.448h-39.185V66.695h111.16V91.448z"/>
</g>
<g>
	<path fill="#FFFDFE" d="M247.735,451.377H96.021v-32.852l69.884-73.468c17.221-19.61,25.833-35.189,25.833-46.739
		c0-9.355-2.042-16.475-6.122-21.354c-4.083-4.876-10.005-7.316-17.77-7.316c-7.667,0-13.887,3.262-18.666,9.781
		c-4.778,6.521-7.167,14.659-7.167,24.414H91.541c0-13.339,3.334-25.658,10.005-36.957c6.668-11.298,15.927-20.134,27.774-26.506
		c11.846-6.37,25.087-9.557,39.721-9.557c23.493,0,41.587,5.427,54.28,16.277c12.692,10.852,19.039,26.431,19.039,46.739
		c0,8.563-1.594,16.898-4.778,25.012c-3.188,8.115-8.139,16.626-14.858,25.534c-6.72,8.911-17.546,20.831-32.479,35.764
		l-28.073,32.403h85.563V451.377z"/>
	<path fill="#FFFDFE" d="M276.106,345.174l13.29-111.214h127.076v39.123h-86.16l-4.928,43.19c3.584-2.1,8.287-3.948,14.111-5.549
		c5.822-1.601,11.521-2.4,17.098-2.4c21.6,0,38.201,6.397,49.799,19.188c11.598,12.793,17.396,30.738,17.396,53.832
		c0,13.938-3.111,26.557-9.332,37.854c-6.223,11.301-14.959,19.986-26.207,26.059c-11.25,6.072-24.541,9.107-39.869,9.107
		c-13.641,0-26.432-2.811-38.377-8.43c-11.945-5.617-21.305-13.326-28.073-23.127c-6.771-9.797-10.105-20.863-10.005-33.196h50.473
		c0.496,7.946,3.035,14.256,7.615,18.925c4.578,4.671,10.602,7.004,18.068,7.004c16.922,0,25.385-12.518,25.385-37.553
		c0-23.146-10.354-34.721-31.059-34.721c-11.748,0-20.51,3.775-26.281,11.326L276.106,345.174z"/>
</g>
</svg>
