<?xml version="1.0" encoding="utf-8"?>
<!-- Generator: Adobe Illustrator 16.0.0, SVG Export Plug-In . SVG Version: 6.00 Build 0)  -->
<!DOCTYPE svg PUBLIC "-//W3C//DTD SVG 1.1//EN" "http://www.w3.org/Graphics/SVG/1.1/DTD/svg11.dtd">
<svg version="1.1" id="Layer_1" xmlns="http://www.w3.org/2000/svg" xmlns:xlink="http://www.w3.org/1999/xlink" x="0px" y="0px"
	 width="528px" height="527px" viewBox="0 0 528 527" enable-background="new 0 0 528 527" xml:space="preserve">
<g>
	<path fill="#FFFDFE" d="M205.174,386.93c0,12.971-2.406,24.449-7.216,34.436c-4.811,9.986-11.646,17.675-20.506,23.063
		c-8.86,5.389-18.953,8.084-30.279,8.084c-11.326,0-21.374-2.604-30.142-7.81c-8.769-5.207-15.605-12.65-20.506-22.333
		c-4.902-9.682-7.476-20.794-7.718-33.34v-7.488c0-13.03,2.389-24.525,7.17-34.48c4.779-9.957,11.63-17.644,20.551-23.063
		c8.92-5.419,19.074-8.13,30.462-8.13c11.265,0,21.312,2.681,30.142,8.037c8.829,5.359,15.695,12.986,20.597,22.882
		c4.901,9.896,7.383,21.235,7.444,34.022L205.174,386.93L205.174,386.93z M172.565,381.359c0-13.213-2.208-23.246-6.622-30.098
		c-4.416-6.851-10.732-10.275-18.953-10.275c-16.076,0-24.57,12.058-25.484,36.171l-0.091,9.772c0,13.031,2.161,23.049,6.485,30.051
		c4.323,7.004,10.747,10.504,19.273,10.504c8.098,0,14.34-3.438,18.725-10.32c4.384-6.881,6.606-16.775,6.667-29.686V381.359z"/>
	<path fill="#FFFDFE" d="M329.305,405.655c-0.428,9.257-2.924,17.432-7.489,24.524c-4.566,7.094-10.978,12.59-19.228,16.486
		c-8.252,3.896-17.676,5.846-28.271,5.846c-17.477,0-31.237-5.693-41.284-17.08c-10.047-11.387-15.071-27.463-15.071-48.228v-6.577
		c0-13.029,2.268-24.434,6.805-34.206c4.535-9.772,11.066-17.323,19.592-22.651c8.524-5.328,18.389-7.992,29.594-7.992
		c16.136,0,29.106,4.246,38.911,12.74c9.803,8.496,15.375,20.202,16.715,35.121h-31.969c-0.244-8.099-2.283-13.914-6.119-17.445
		c-3.838-3.531-9.684-5.299-17.538-5.299c-7.978,0-13.824,2.984-17.537,8.951c-3.715,5.969-5.663,15.498-5.846,28.59v9.407
		c0,14.189,1.781,24.328,5.343,30.416c3.563,6.091,9.697,9.134,18.404,9.134c7.369,0,13.002-1.734,16.897-5.205
		c3.896-3.472,5.968-8.981,6.211-16.532H329.305z"/>
	<path fill="#FFFDFE" d="M446.219,342.448h-39.915v108.237h-32.061V342.448h-39.186v-24.753h111.16L446.219,342.448L446.219,342.448
		z"/>
</g>
<g>
	<path fill="#FFFDFE" d="M254.735,285.248H103.021v-32.851l69.884-73.469c17.221-19.609,25.833-35.188,25.833-46.738
		c0-9.355-2.042-16.476-6.122-21.354c-4.083-4.876-10.005-7.315-17.77-7.315c-7.667,0-13.887,3.262-18.666,9.78
		c-4.778,6.521-7.167,14.659-7.167,24.414H98.541c0-13.339,3.334-25.657,10.005-36.957c6.668-11.298,15.927-20.134,27.774-26.506
		c11.846-6.37,25.087-9.557,39.721-9.557c23.493,0,41.587,5.427,54.28,16.277c12.692,10.852,19.039,26.431,19.039,46.739
		c0,8.563-1.594,16.897-4.778,25.013c-3.188,8.114-8.139,16.625-14.858,25.533c-6.72,8.911-17.546,20.831-32.479,35.764
		l-28.073,32.403h85.563V285.248L254.735,285.248z"/>
	<path fill="#FFFDFE" d="M283.105,179.045l13.291-111.214h127.075v39.123h-86.16l-4.928,43.19c3.584-2.101,8.287-3.948,14.111-5.549
		c5.822-1.602,11.521-2.4,17.098-2.4c21.601,0,38.201,6.396,49.799,19.188c11.599,12.793,17.396,30.738,17.396,53.832
		c0,13.938-3.111,26.558-9.332,37.854c-6.223,11.301-14.959,19.985-26.207,26.059c-11.25,6.072-24.541,9.107-39.869,9.107
		c-13.641,0-26.432-2.813-38.377-8.432c-11.944-5.615-21.305-13.324-28.073-23.126c-6.771-9.797-10.104-20.862-10.005-33.195h50.474
		c0.495,7.945,3.034,14.256,7.614,18.925c4.578,4.671,10.603,7.004,18.068,7.004c16.922,0,25.385-12.519,25.385-37.554
		c0-23.146-10.354-34.721-31.059-34.721c-11.748,0-20.511,3.775-26.281,11.326L283.105,179.045z"/>
</g>
</svg>
