<?xml version="1.0" encoding="utf-8"?>
<!-- Generator: Adobe Illustrator 16.0.0, SVG Export Plug-In . SVG Version: 6.00 Build 0)  -->
<!DOCTYPE svg PUBLIC "-//W3C//DTD SVG 1.1//EN" "http://www.w3.org/Graphics/SVG/1.1/DTD/svg11.dtd">
<svg version="1.1" id="Layer_1" xmlns="http://www.w3.org/2000/svg" xmlns:xlink="http://www.w3.org/1999/xlink" x="0px" y="0px"
	 width="1054px" height="527px" viewBox="-263 0 1054 527" enable-background="new -263 0 1054 527" xml:space="preserve">
<g>
	<path fill="#FFFFFF" d="M-165.775,131.396l-7.031,7.715v18.75h-17.139V86.768h17.139v31.348l5.957-9.033l15.332-22.314h21.191
		l-24.023,31.445l24.023,39.648h-20.313L-165.775,131.396z"/>
	<path fill="#FFFFFF" d="M-81.889,127.686h-26.953v16.992h31.836v13.184h-48.975V86.768h49.072V100h-31.934v14.99h26.953V127.686z"
		/>
	<path fill="#FFFFFF" d="M-43.998,117.627l13.086-30.859h18.506l-22.9,45.557v25.537h-17.383v-25.537l-22.852-45.557h18.408
		L-43.998,117.627z"/>
	<path fill="#FFFFFF" d="M52.145,157.861H35.104L9.908,113.623v44.238H-7.23V86.768H9.908l25.146,44.238V86.768h17.09V157.861z"/>
	<path fill="#FFFFFF" d="M123.189,123.779c0,6.934-1.286,13.07-3.857,18.408c-2.572,5.339-6.226,9.448-10.962,12.329
		s-10.132,4.321-16.187,4.321s-11.426-1.392-16.113-4.175s-8.342-6.763-10.962-11.938c-2.621-5.176-3.996-11.116-4.126-17.822
		v-4.004c0-6.966,1.277-13.11,3.833-18.433c2.555-5.322,6.217-9.432,10.986-12.329c4.769-2.897,10.197-4.346,16.284-4.346
		c6.022,0,11.393,1.433,16.113,4.297c4.72,2.865,8.39,6.942,11.011,12.231c2.62,5.29,3.947,11.353,3.979,18.188V123.779z
		 M105.758,120.801c0-7.063-1.18-12.427-3.54-16.089c-2.36-3.662-5.737-5.493-10.132-5.493c-8.594,0-13.135,6.445-13.623,19.336
		l-0.049,5.225c0,6.966,1.155,12.321,3.467,16.064c2.311,3.744,5.745,5.615,10.303,5.615c4.329,0,7.666-1.839,10.01-5.518
		c2.344-3.678,3.532-8.968,3.564-15.869V120.801z"/>
	<path fill="#FFFFFF" d="M183.688,100H162.35v57.861h-17.139V100h-20.947V86.768h59.424V100z"/>
	<path fill="#FFFFFF" d="M235.006,127.686h-26.953v16.992h31.836v13.184h-48.975V86.768h49.072V100h-31.934v14.99h26.953V127.686z"
		/>
	<path fill="#FFFFFF" d="M308.443,138.965c0-2.506-0.887-4.459-2.661-5.859c-1.774-1.399-4.892-2.848-9.351-4.346
		c-4.46-1.497-8.105-2.946-10.938-4.346c-9.213-4.524-13.818-10.742-13.818-18.652c0-3.938,1.147-7.414,3.442-10.425
		c2.295-3.011,5.542-5.354,9.741-7.031c4.199-1.676,8.919-2.515,14.16-2.515c5.11,0,9.692,0.912,13.745,2.734
		c4.053,1.823,7.202,4.419,9.448,7.788s3.369,7.219,3.369,11.548h-17.09c0-2.897-0.887-5.143-2.661-6.738
		c-1.774-1.595-4.175-2.393-7.202-2.393c-3.061,0-5.477,0.676-7.251,2.026c-1.774,1.351-2.661,3.068-2.661,5.151
		c0,1.823,0.977,3.475,2.93,4.956c1.953,1.481,5.387,3.011,10.303,4.59c4.915,1.579,8.951,3.28,12.109,5.103
		c7.682,4.427,11.523,10.531,11.523,18.311c0,6.218-2.344,11.101-7.031,14.648c-4.688,3.548-11.117,5.322-19.287,5.322
		c-5.762,0-10.979-1.033-15.649-3.101c-4.671-2.067-8.187-4.899-10.547-8.496c-2.36-3.597-3.54-7.739-3.54-12.427h17.188
		c0,3.809,0.984,6.616,2.954,8.423s5.167,2.71,9.595,2.71c2.832,0,5.07-0.61,6.714-1.831S308.443,141.179,308.443,138.965z"/>
	<path fill="#FFFFFF" d="M351.51,133.74v24.121h-17.139V86.768h28.369c5.436,0,10.246,1.001,14.429,3.003s7.422,4.851,9.717,8.545
		c2.295,3.695,3.442,7.886,3.442,12.573c0,6.934-2.482,12.476-7.446,16.626s-11.776,6.226-20.435,6.226H351.51z M351.51,120.508
		h11.23c3.32,0,5.852-0.83,7.593-2.49s2.612-4.004,2.612-7.031c0-3.32-0.896-5.973-2.686-7.959
		c-1.791-1.985-4.232-2.995-7.324-3.027H351.51V120.508z"/>
	<path fill="#FFFFFF" d="M443.551,127.686h-26.953v16.992h31.836v13.184h-48.975V86.768h49.072V100h-31.934v14.99h26.953V127.686z"
		/>
	<path fill="#FFFFFF" d="M495.797,144.58h-23.486l-4.102,13.281h-18.311l26.074-71.094h16.113l26.27,71.094h-18.408L495.797,144.58z
		 M476.412,131.348h15.283l-7.666-24.658L476.412,131.348z"/>
	<path fill="#FFFFFF" d="M547.701,131.396l-7.031,7.715v18.75h-17.139V86.768h17.139v31.348l5.957-9.033l15.332-22.314h21.191
		l-24.023,31.445l24.023,39.648h-20.313L547.701,131.396z"/>
	<path fill="#FFFFFF" d="M631.588,127.686h-26.953v16.992h31.836v13.184h-48.975V86.768h49.072V100h-31.934v14.99h26.953V127.686z"
		/>
	<path fill="#FFFFFF" d="M669.869,132.715h-9.277v25.146h-17.139V86.768h27.979c8.431,0,15.022,1.87,19.775,5.609
		c4.752,3.74,7.129,9.024,7.129,15.852c0,4.943-1.001,9.04-3.003,12.292c-2.002,3.251-5.136,5.886-9.399,7.901l14.844,28.706v0.733
		h-18.359L669.869,132.715z M660.592,119.531h10.84c3.255,0,5.705-0.856,7.349-2.569c1.644-1.714,2.466-4.104,2.466-7.172
		c0-3.067-0.83-5.474-2.49-7.22s-4.102-2.619-7.324-2.619h-10.84V119.531z"/>
</g>
<g>
	<path fill="#FFFFFF" d="M-153.463,224.906h9.424v50.342c0,6.804-2.043,12.126-6.128,15.967c-4.085,3.842-9.53,5.762-16.333,5.762
		c-7.064,0-12.565-1.807-16.504-5.42c-3.939-3.613-5.908-8.675-5.908-15.186h9.375c0,4.069,1.115,7.243,3.345,9.521
		c2.229,2.279,5.46,3.418,9.692,3.418c3.874,0,7.007-1.221,9.399-3.662s3.605-5.859,3.638-10.254V224.906z"/>
	<path fill="#FFFFFF" d="M-78.023,224.906v48.34c-0.033,6.706-2.141,12.191-6.323,16.455c-4.183,4.265-9.855,6.656-17.017,7.178
		l-2.49,0.098c-7.78,0-13.981-2.1-18.604-6.299c-4.623-4.199-6.966-9.977-7.031-17.334v-48.438h9.277v48.145
		c0,5.144,1.416,9.139,4.248,11.987s6.868,4.272,12.109,4.272c5.306,0,9.367-1.416,12.183-4.248
		c2.815-2.832,4.224-6.819,4.224-11.963v-48.193H-78.023z"/>
	<path fill="#FFFFFF" d="M-42.281,264.311c-8.041-2.311-13.892-5.151-17.554-8.521s-5.493-7.527-5.493-12.476
		c0-5.599,2.238-10.229,6.714-13.892c4.476-3.662,10.294-5.493,17.456-5.493c4.883,0,9.236,0.944,13.062,2.832
		c3.825,1.888,6.787,4.492,8.887,7.813s3.149,6.95,3.149,10.889h-9.424c0-4.312-1.367-7.701-4.102-10.167
		c-2.734-2.466-6.592-3.7-11.572-3.7c-4.623,0-8.228,1.02-10.815,3.058c-2.588,2.039-3.882,4.867-3.882,8.486
		c0,2.903,1.229,5.357,3.687,7.362c2.458,2.006,6.641,3.84,12.549,5.503c5.908,1.663,10.53,3.496,13.867,5.498
		c3.336,2.002,5.811,4.338,7.422,7.007c1.611,2.67,2.417,5.811,2.417,9.424c0,5.762-2.246,10.376-6.738,13.843
		s-10.498,5.2-18.018,5.2c-4.883,0-9.44-0.936-13.672-2.808c-4.232-1.872-7.495-4.435-9.79-7.69
		c-2.295-3.255-3.442-6.949-3.442-11.084h9.424c0,4.297,1.587,7.69,4.761,10.181s7.414,3.735,12.72,3.735
		c4.948,0,8.74-1.009,11.377-3.027c2.637-2.018,3.955-4.769,3.955-8.252c0-3.482-1.221-6.177-3.662-8.081
		S-35.869,266.166-42.281,264.311z"/>
	<path fill="#FFFFFF" d="M45.219,232.572H22.367V296h-9.326v-63.428H-9.762v-7.666h54.98V232.572z"/>
	<path fill="#FFFFFF" d="M65.824,296h-9.375v-71.094h9.375V296z"/>
	<path fill="#FFFFFF" d="M137.602,296h-9.424l-35.791-54.785V296h-9.424v-71.094h9.424l35.889,55.029v-55.029h9.326V296z"/>
	<path fill="#FFFFFF" d="M-130.758,406.674c-2.409,3.451-5.77,6.03-10.083,7.739c-4.313,1.709-9.334,2.563-15.063,2.563
		c-5.794,0-10.938-1.359-15.43-4.077s-7.967-6.583-10.425-11.597c-2.458-5.013-3.719-10.823-3.784-17.432v-6.201
		c0-10.709,2.498-19.01,7.495-24.902c4.997-5.892,12.02-8.838,21.069-8.838c7.422,0,13.395,1.896,17.92,5.688
		c4.524,3.792,7.292,9.172,8.301,16.138h-9.375c-1.758-9.439-7.357-14.16-16.797-14.16c-6.283,0-11.043,2.208-14.282,6.622
		c-3.239,4.415-4.875,10.809-4.907,19.181v5.816c0,7.981,1.823,14.326,5.469,19.034c3.646,4.708,8.577,7.062,14.795,7.062
		c3.516,0,6.592-0.389,9.229-1.169s4.817-2.095,6.543-3.946v-15.93h-16.455V380.6h25.781V406.674z"/>
	<path fill="#FFFFFF" d="M-60.445,382.748c0,6.967-1.172,13.045-3.516,18.237s-5.664,9.155-9.961,11.89s-9.31,4.102-15.039,4.102
		c-5.599,0-10.563-1.375-14.893-4.126c-4.33-2.751-7.69-6.673-10.083-11.768s-3.622-10.994-3.687-17.7v-5.127
		c0-6.836,1.188-12.874,3.564-18.115c2.376-5.24,5.737-9.253,10.083-12.036s9.318-4.175,14.917-4.175
		c5.696,0,10.718,1.375,15.063,4.126s7.69,6.738,10.034,11.963s3.516,11.304,3.516,18.237V382.748z M-69.771,378.158
		c0-8.431-1.693-14.9-5.078-19.409c-3.386-4.509-8.122-6.763-14.209-6.763c-5.925,0-10.588,2.254-13.989,6.763
		c-3.402,4.509-5.151,10.767-5.249,18.774v5.225c0,8.171,1.717,14.592,5.151,19.263c3.434,4.671,8.162,7.007,14.185,7.007
		c6.055,0,10.742-2.205,14.063-6.616s5.029-10.733,5.127-18.97V378.158z"/>
	<path fill="#FFFFFF" d="M1.42,352.572h-22.852V416h-9.326v-63.428h-22.803v-7.666H1.42V352.572z"/>
	<path fill="#FFFFFF" d="M61.869,352.572H39.018V416h-9.326v-63.428H6.889v-7.666h54.98V352.572z"/>
	<path fill="#FFFFFF" d="M92.582,384.311c-8.041-2.311-13.892-5.151-17.554-8.521s-5.493-7.527-5.493-12.476
		c0-5.599,2.238-10.229,6.714-13.892c4.476-3.662,10.294-5.493,17.456-5.493c4.883,0,9.236,0.944,13.062,2.832
		c3.825,1.889,6.787,4.492,8.887,7.813s3.149,6.95,3.149,10.889h-9.424c0-4.313-1.367-7.701-4.102-10.168
		c-2.734-2.465-6.592-3.699-11.572-3.699c-4.623,0-8.228,1.02-10.815,3.058c-2.588,2.039-3.882,4.867-3.882,8.486
		c0,2.903,1.229,5.357,3.687,7.362c2.458,2.006,6.641,3.84,12.549,5.504c5.908,1.662,10.53,3.495,13.867,5.497
		c3.336,2.002,5.811,4.338,7.422,7.007c1.611,2.67,2.417,5.811,2.417,9.424c0,5.762-2.246,10.376-6.738,13.843
		s-10.498,5.2-18.018,5.2c-4.883,0-9.44-0.936-13.672-2.808c-4.232-1.872-7.495-4.435-9.79-7.69
		c-2.295-3.255-3.442-6.949-3.442-11.084h9.424c0,4.297,1.587,7.69,4.761,10.181s7.414,3.735,12.72,3.735
		c4.948,0,8.74-1.009,11.377-3.027c2.637-2.018,3.955-4.769,3.955-8.252c0-3.482-1.221-6.177-3.662-8.081
		S98.995,386.166,92.582,384.311z"/>
	<path fill="#FFFFFF" d="M183.256,393.441c-0.879,7.52-3.654,13.322-8.325,17.407c-4.671,4.085-10.881,6.128-18.628,6.128
		c-8.398,0-15.129-3.011-20.19-9.033c-5.062-6.021-7.593-14.078-7.593-24.17v-6.836c0-6.607,1.18-12.418,3.54-17.432
		c2.36-5.013,5.705-8.862,10.034-11.548c4.329-2.686,9.342-4.028,15.039-4.028c7.552,0,13.606,2.107,18.164,6.323
		c4.557,4.216,7.21,10.051,7.959,17.505h-9.424c-0.814-5.681-2.58-9.795-5.298-12.342c-2.718-2.547-6.519-3.82-11.401-3.82
		c-5.99,0-10.686,2.216-14.087,6.646c-3.402,4.432-5.103,10.734-5.103,18.912v6.891c0,7.722,1.611,13.863,4.834,18.424
		c3.223,4.562,7.731,6.842,13.525,6.842c5.208,0,9.204-1.18,11.987-3.54s4.63-6.47,5.542-12.329H183.256z"/>
	<path fill="#FFFFFF" d="M250.688,416h-9.424v-32.861h-35.84V416h-9.375v-71.094h9.375v30.566h35.84v-30.566h9.424V416z"/>
	<path fill="#FFFFFF" d="M276.762,408.334h33.691V416h-43.115v-71.094h9.424V408.334z"/>
	<path fill="#FFFFFF" d="M331.205,416h-9.375v-71.094h9.375V416z"/>
	<path fill="#FFFFFF" d="M400.639,393.441c-0.879,7.52-3.654,13.322-8.325,17.407c-4.672,4.085-10.881,6.128-18.628,6.128
		c-8.398,0-15.129-3.011-20.19-9.033c-5.062-6.021-7.593-14.078-7.593-24.17v-6.836c0-6.607,1.18-12.418,3.54-17.432
		c2.36-5.013,5.704-8.862,10.034-11.548c4.329-2.686,9.342-4.028,15.039-4.028c7.552,0,13.606,2.107,18.164,6.323
		c4.557,4.216,7.21,10.051,7.959,17.505h-9.424c-0.814-5.681-2.58-9.795-5.298-12.342c-2.719-2.547-6.519-3.82-11.401-3.82
		c-5.99,0-10.686,2.216-14.087,6.646c-3.401,4.432-5.103,10.734-5.103,18.912v6.891c0,7.722,1.611,13.863,4.834,18.424
		c3.223,4.562,7.73,6.842,13.525,6.842c5.208,0,9.204-1.18,11.987-3.54s4.63-6.47,5.542-12.329H400.639z"/>
	<path fill="#FFFFFF" d="M468.07,416h-9.424v-32.861h-35.84V416h-9.375v-71.094h9.375v30.566h35.84v-30.566h9.424V416z"/>
</g>
</svg>
