<?xml version="1.0" encoding="utf-8"?>
<!-- Generator: Adobe Illustrator 16.0.0, SVG Export Plug-In . SVG Version: 6.00 Build 0)  -->
<!DOCTYPE svg PUBLIC "-//W3C//DTD SVG 1.1//EN" "http://www.w3.org/Graphics/SVG/1.1/DTD/svg11.dtd">
<svg version="1.1" id="Layer_1" xmlns="http://www.w3.org/2000/svg" xmlns:xlink="http://www.w3.org/1999/xlink" x="0px" y="0px"
	 width="560.133px" height="93.98px" viewBox="0 0 560.133 93.98" enable-background="new 0 0 560.133 93.98" xml:space="preserve">
<g>
	<path fill="#020202" d="M16.839,52.522l-3.023,17.401H1.792l8.859-51.188l18.387,0.035c5.695,0,10.178,1.581,13.447,4.741
		c3.269,3.159,4.705,7.258,4.307,12.292c-0.281,3.441-1.383,6.427-3.305,8.955c-1.922,2.529-4.459,4.46-7.611,5.795
		s-6.686,2.002-10.6,2.002L16.839,52.522z M18.492,43.03l7.242,0.07c3.046-0.07,5.379-1.063,6.996-2.979s2.262-4.27,1.934-7.064
		c-0.188-1.434-0.733-2.566-1.635-3.4c-0.902-0.834-2.092-1.298-3.568-1.393l-8.402-0.035L18.492,43.03z"/>
	<path fill="#020202" d="M69.468,51.819h-6.68l-3.164,18.104H47.601l8.859-51.188l18.07,0.035c5.789,0,10.248,1.353,13.377,4.056
		c3.129,2.704,4.529,6.398,4.201,11.08c-0.258,3.699-1.324,6.761-3.199,9.184c-1.875,2.425-4.5,4.337-7.875,5.742l6.891,20.492
		v0.599H75.093L69.468,51.819z M64.406,42.327l7.031,0.07c1.921,0,3.591-0.471,5.01-1.41c1.418-0.939,2.431-2.227,3.041-3.859
		c0.609-1.633,0.785-3.213,0.527-4.74c-0.469-2.608-2.133-3.982-4.992-4.124l-8.156-0.035L64.406,42.327z"/>
	<path fill="#020202" d="M128.144,48.198h-18.809l-2.145,12.234h22.254l-1.652,9.491H93.515l8.859-51.188h34.348l-1.652,9.527
		h-22.289l-1.898,10.793h18.844L128.144,48.198z"/>
	<path fill="#020202" d="M175.851,52.487c-0.305,3.586-1.482,6.772-3.533,9.563c-2.051,2.79-4.746,4.935-8.086,6.435
		s-6.955,2.215-10.846,2.145c-5.344-0.116-9.551-1.84-12.621-5.168c-3.071-3.328-4.746-7.84-5.027-13.535
		c-0.211-3.797,0.205-7.933,1.248-12.409c1.042-4.478,2.742-8.373,5.098-11.689c2.355-3.316,5.133-5.801,8.332-7.453
		c3.199-1.651,6.697-2.442,10.494-2.373c5.578,0.094,9.99,1.771,13.236,5.027c3.246,3.258,5.01,7.747,5.291,13.465l-11.988-0.035
		c0.047-3.117-0.516-5.344-1.688-6.68c-1.172-1.336-3.023-2.051-5.555-2.146c-6.328-0.211-10.184,4.711-11.566,14.767
		c-0.633,4.547-0.949,7.793-0.949,9.738c-0.118,5.766,2.016,8.729,6.398,8.895c2.836,0.094,5.098-0.604,6.785-2.092
		c1.687-1.488,2.766-3.592,3.234-6.312L175.851,52.487z"/>
	<path fill="#020202" d="M191.988,69.924h-12.023l8.895-51.188h11.988L191.988,69.924z"/>
	<path fill="#020202" d="M228.691,56.073c0.516-2.648-0.914-4.699-4.289-6.152l-5.766-2.391c-8.086-3.633-11.93-8.578-11.531-14.836
		c0.164-2.859,1.148-5.408,2.953-7.646c1.805-2.237,4.301-3.978,7.488-5.221c3.188-1.242,6.668-1.84,10.441-1.793
		c5.063,0.094,9.135,1.57,12.217,4.43c3.082,2.86,4.6,6.692,4.553,11.496h-11.953c0.07-1.969-0.346-3.545-1.248-4.729
		c-0.902-1.184-2.385-1.798-4.447-1.847c-2.016-0.047-3.797,0.423-5.344,1.406c-1.547,0.984-2.461,2.31-2.742,3.974
		c-0.445,2.344,1.295,4.266,5.221,5.766c3.926,1.5,6.779,2.79,8.561,3.867c5.602,3.352,8.227,7.875,7.875,13.569
		c-0.188,2.953-1.137,5.543-2.848,7.771c-1.711,2.227-4.084,3.949-7.119,5.168s-6.439,1.805-10.213,1.758
		c-2.766-0.047-5.332-0.479-7.699-1.301c-2.367-0.821-4.395-2.016-6.082-3.586c-3.422-3.164-5.063-7.324-4.922-12.48l12.059,0.035
		c-0.141,2.625,0.363,4.611,1.512,5.959c1.149,1.349,3.082,2.021,5.801,2.021c2.016,0,3.697-0.463,5.045-1.39
		C227.562,58.996,228.386,57.713,228.691,56.073z"/>
	<path fill="#020202" d="M279.281,48.198h-18.809l-2.145,12.234h22.254l-1.652,9.491h-34.278l8.859-51.188h34.348l-1.651,9.527
		h-22.289l-1.898,10.793h18.844L279.281,48.198z"/>
	<path fill="#020202" d="M318.516,55.686l9.527-23.802h12.48l-18,38.039h-11.777l-6.082-38.039h11.883L318.516,55.686z"/>
	<path fill="#020202" d="M349.945,69.924h-11.603l6.609-38.039h11.602L349.945,69.924z M345.973,22.288
		c-0.047-1.71,0.558-3.141,1.812-4.289c1.254-1.147,2.771-1.723,4.553-1.723c1.805,0,3.312,0.516,4.519,1.547
		c1.207,1.032,1.834,2.379,1.881,4.043c0.047,1.735-0.552,3.17-1.793,4.307c-1.242,1.138-2.767,1.705-4.57,1.705
		c-1.758,0-3.252-0.51-4.482-1.528C346.661,25.33,346.02,23.975,345.973,22.288z"/>
	<path fill="#020202" d="M376.207,70.627c-3.398-0.022-6.428-0.826-9.088-2.408c-2.66-1.581-4.67-3.784-6.029-6.608
		c-1.358-2.824-1.897-5.937-1.617-9.334l0.105-0.984c0.633-6.258,2.807-11.209,6.521-14.854c3.716-3.645,8.269-5.396,13.658-5.256
		c3.258,0.047,6.047,0.875,8.367,2.481c2.32,1.607,4.02,3.826,5.098,6.654c1.078,2.829,1.431,6.003,1.056,9.522l-0.668,4.824
		h-22.642c0.047,1.992,0.609,3.609,1.688,4.853c1.079,1.242,2.647,1.897,4.711,1.969c3.352,0.094,6.363-1.195,9.035-3.867
		l4.852,6.416c-1.43,2.033-3.428,3.629-5.994,4.786c-2.565,1.156-5.373,1.759-8.42,1.806H376.207z M379.02,40.323
		c-1.641-0.047-3.063,0.466-4.271,1.539s-2.256,2.869-3.146,5.387h11.566l0.211-1.015c0.142-0.815,0.164-1.585,0.07-2.309
		C383.051,41.594,381.574,40.393,379.02,40.323z"/>
	<path fill="#020202" d="M430.137,54.28l7.629-22.396h11.32l-15.293,38.039h-9.738l-2.18-22.43l-10.02,22.43h-9.81l-2.108-38.039
		H410.8l-0.352,22.642l9.737-22.642h8.052L430.137,54.28z"/>
	<path fill="#020202" d="M468.176,59.026c0.306-1.547-0.891-2.707-3.586-3.48l-2.496-0.633c-4.078-1.078-7.065-2.59-8.965-4.535
		c-1.898-1.944-2.789-4.254-2.672-6.926c0.117-3.656,1.74-6.627,4.869-8.912s6.942-3.404,11.442-3.356
		c4.478,0.047,8.104,1.184,10.882,3.409c2.776,2.228,4.188,5.228,4.235,9l-11.53-0.034c0.094-3-1.23-4.5-3.974-4.5
		c-1.172,0-2.262,0.346-3.27,1.037c-1.009,0.69-1.605,1.611-1.793,2.76c-0.398,1.897,1.276,3.199,5.026,3.901
		c3.258,0.773,5.777,1.67,7.56,2.689c1.781,1.019,3.141,2.279,4.078,3.779c0.937,1.5,1.37,3.305,1.301,5.414
		c-0.07,2.297-0.82,4.348-2.25,6.151c-1.431,1.804-3.498,3.246-6.205,4.324s-5.644,1.582-8.807,1.512
		c-2.742-0.022-5.291-0.598-7.646-1.723c-2.354-1.125-4.195-2.654-5.52-4.588c-1.325-1.935-2.011-4.154-2.058-6.662l10.758,0.07
		c0.047,3.375,1.734,5.039,5.063,4.991c1.43,0,2.647-0.321,3.656-0.967C467.284,61.104,467.918,60.198,468.176,59.026z"/>
</g>
</svg>
