<?xml version="1.0" encoding="utf-8"?>
<!-- Generator: Adobe Illustrator 23.0.3, SVG Export Plug-In . SVG Version: 6.00 Build 0)  -->
<svg version="1.1" id="Layer_1" xmlns="http://www.w3.org/2000/svg" xmlns:xlink="http://www.w3.org/1999/xlink" x="0px" y="0px"
	 viewBox="0 0 450 58.5" style="enable-background:new 0 0 450 58.5;" xml:space="preserve">
<style type="text/css">
	.st0{fill:#FFFFFF;}
</style>
<g>
	<path class="st0" d="M31.5,21h-1.8v4.8h-3.3V12.2h5.4c1.6,0,2.9,0.4,3.8,1.1s1.4,1.7,1.4,3c0,0.9-0.2,1.7-0.6,2.4
		c-0.4,0.6-1,1.1-1.8,1.5l2.8,5.5v0.1h-3.5L31.5,21z M29.7,18.5h2.1c0.6,0,1.1-0.2,1.4-0.5s0.5-0.8,0.5-1.4c0-0.6-0.2-1-0.5-1.4
		c-0.3-0.3-0.8-0.5-1.4-0.5h-2.1C29.7,14.7,29.7,18.5,29.7,18.5z"/>
	<path class="st0" d="M48.9,20.1h-5.2v3.3h6.1v2.5h-9.4V12.2h9.4v2.5h-6.1v2.9h5.2L48.9,20.1L48.9,20.1z"/>
	<path class="st0" d="M63.9,24.1c-0.5,0.6-1.2,1-2.2,1.4c-1,0.3-2,0.5-3.2,0.5c-1.8,0-3.2-0.5-4.3-1.6c-1.1-1.1-1.6-2.6-1.7-4.6
		l0-1.2c0-1.3,0.2-2.5,0.7-3.5s1.2-1.8,2-2.3c0.9-0.5,1.9-0.8,3.1-0.8c1.7,0,3,0.4,4,1.2c0.9,0.8,1.5,1.9,1.6,3.5h-3.2
		c-0.1-0.8-0.4-1.3-0.7-1.6c-0.4-0.3-0.9-0.5-1.6-0.5c-0.8,0-1.5,0.4-1.9,1c-0.4,0.7-0.7,1.7-0.7,3v0.8c0,1.4,0.2,2.4,0.7,3.1
		c0.5,0.7,1.2,1,2.2,1c0.9,0,1.5-0.2,1.9-0.6v-2.1h-2.3v-2.3h5.6L63.9,24.1L63.9,24.1z"/>
	<path class="st0" d="M70.8,25.8h-3.3V12.2h3.3V25.8z"/>
	<path class="st0" d="M81.7,22.2c0-0.5-0.2-0.9-0.5-1.1c-0.3-0.3-0.9-0.5-1.8-0.8c-0.9-0.3-1.6-0.6-2.1-0.8
		c-1.8-0.9-2.6-2.1-2.6-3.6c0-0.8,0.2-1.4,0.7-2c0.4-0.6,1.1-1,1.9-1.3s1.7-0.5,2.7-0.5c1,0,1.9,0.2,2.6,0.5
		c0.8,0.4,1.4,0.8,1.8,1.5c0.4,0.6,0.6,1.4,0.6,2.2h-3.3c0-0.6-0.2-1-0.5-1.3c-0.3-0.3-0.8-0.5-1.4-0.5c-0.6,0-1,0.1-1.4,0.4
		s-0.5,0.6-0.5,1c0,0.3,0.2,0.7,0.6,0.9c0.4,0.3,1,0.6,2,0.9c0.9,0.3,1.7,0.6,2.3,1c1.5,0.8,2.2,2,2.2,3.5c0,1.2-0.4,2.1-1.3,2.8
		s-2.1,1-3.7,1c-1.1,0-2.1-0.2-3-0.6c-0.9-0.4-1.6-0.9-2-1.6s-0.7-1.5-0.7-2.4h3.3c0,0.7,0.2,1.3,0.6,1.6s1,0.5,1.8,0.5
		c0.5,0,1-0.1,1.3-0.4S81.7,22.6,81.7,22.2z"/>
	<path class="st0" d="M98.9,14.7h-4.1v11.1h-3.3V14.7h-4v-2.5h11.4C98.9,12.2,98.9,14.7,98.9,14.7z"/>
	<path class="st0" d="M110.2,20.1h-5.2v3.3h6.1v2.5h-9.4V12.2h9.4v2.5h-6.1v2.9h5.2L110.2,20.1L110.2,20.1z"/>
	<path class="st0" d="M119.1,21h-1.8v4.8H114V12.2h5.4c1.6,0,2.9,0.4,3.8,1.1s1.4,1.7,1.4,3c0,0.9-0.2,1.7-0.6,2.4
		c-0.4,0.6-1,1.1-1.8,1.5l2.8,5.5v0.1h-3.5L119.1,21z M117.3,18.5h2.1c0.6,0,1.1-0.2,1.4-0.5s0.5-0.8,0.5-1.4c0-0.6-0.2-1-0.5-1.4
		c-0.3-0.3-0.8-0.5-1.4-0.5h-2.1V18.5z"/>
	<path class="st0" d="M145.7,25.8h-3.3l-4.8-8.5v8.5h-3.3V12.2h3.3l4.8,8.5v-8.5h3.3V25.8z"/>
	<path class="st0" d="M160.9,19.3c0,1.3-0.2,2.5-0.7,3.5s-1.2,1.8-2.1,2.4c-0.9,0.6-1.9,0.8-3.1,0.8s-2.2-0.3-3.1-0.8
		s-1.6-1.3-2.1-2.3s-0.8-2.1-0.8-3.4v-0.8c0-1.3,0.2-2.5,0.7-3.5s1.2-1.8,2.1-2.4c0.9-0.6,2-0.8,3.1-0.8c1.2,0,2.2,0.3,3.1,0.8
		c0.9,0.5,1.6,1.3,2.1,2.3c0.5,1,0.8,2.2,0.8,3.5L160.9,19.3L160.9,19.3z M157.5,18.7c0-1.4-0.2-2.4-0.7-3.1s-1.1-1.1-1.9-1.1
		c-1.6,0-2.5,1.2-2.6,3.7l0,1c0,1.3,0.2,2.4,0.7,3.1c0.4,0.7,1.1,1.1,2,1.1c0.8,0,1.5-0.4,1.9-1.1c0.4-0.7,0.7-1.7,0.7-3L157.5,18.7
		L157.5,18.7z"/>
	<path class="st0" d="M174.7,20.8l1.6-8.5h3.3l-2.9,13.6h-3.4l-1.8-7.8l-1.8,7.8h-3.4l-2.9-13.6h3.3l1.6,8.5l1.9-8.5h2.8L174.7,20.8
		z"/>
	<path class="st0" d="M182.2,24.4c0-0.5,0.2-0.8,0.5-1.1c0.3-0.3,0.8-0.4,1.2-0.4s0.9,0.1,1.2,0.4c0.3,0.3,0.5,0.7,0.5,1.1
		s-0.2,0.8-0.5,1.1c-0.3,0.3-0.8,0.4-1.2,0.4s-0.9-0.1-1.2-0.4C182.4,25.3,182.2,24.9,182.2,24.4z M185.3,21.5h-2.6l-0.4-9.3h3.4
		L185.3,21.5z"/>
	<path class="st0" d="M198.7,23.3h5.7v2.5h-9V12.2h3.3V23.3z"/>
	<path class="st0" d="M210.8,25.8h-3.3V12.2h3.3V25.8z"/>
	<path class="st0" d="M219,12.2l3,9.5l3-9.5h4.3v13.6h-3.3v-3.2l0.3-6.5l-3.3,9.7h-2.2l-3.3-9.7l0.3,6.5v3.2h-3.3V12.2H219z"/>
	<path class="st0" d="M236.5,25.8h-3.3V12.2h3.3V25.8z"/>
	<path class="st0" d="M250.7,14.7h-4.1v11.1h-3.3V14.7h-4v-2.5h11.4V14.7z"/>
	<path class="st0" d="M262.1,20.1h-5.2v3.3h6.1v2.5h-9.4V12.2h9.4v2.5h-6.1v2.9h5.2L262.1,20.1L262.1,20.1z"/>
	<path class="st0" d="M265.9,25.8V12.2h4.4c1.2,0,2.3,0.3,3.2,0.8s1.7,1.3,2.3,2.3s0.8,2.1,0.8,3.3v0.6c0,1.2-0.3,2.4-0.8,3.4
		c-0.5,1-1.3,1.8-2.2,2.3c-1,0.6-2,0.8-3.2,0.8L265.9,25.8L265.9,25.8z M269.2,14.7v8.6h1.1c0.9,0,1.7-0.3,2.2-1
		c0.5-0.7,0.8-1.7,0.8-3v-0.6c0-1.3-0.3-2.3-0.8-3c-0.5-0.7-1.2-1-2.2-1C270.3,14.7,269.2,14.7,269.2,14.7z"/>
	<path class="st0" d="M293.8,23.3h-4.5l-0.8,2.5H285l5-13.6h3.1l5,13.6h-3.5L293.8,23.3z M290.1,20.8h2.9l-1.5-4.7L290.1,20.8z"/>
	<path class="st0" d="M305.2,22.1l2.7-9.9h3.7L307,25.8h-3.6l-4.5-13.6h3.6L305.2,22.1z"/>
	<path class="st0" d="M321.2,23.3h-4.5l-0.8,2.5h-3.5l5-13.6h3.1l5,13.6H322L321.2,23.3z M317.5,20.8h2.9l-1.5-4.7L317.5,20.8z"/>
	<path class="st0" d="M331.5,25.8h-3.3V12.2h3.3V25.8z"/>
	<path class="st0" d="M338.6,23.3h5.7v2.5h-9V12.2h3.3V23.3z"/>
	<path class="st0" d="M355.2,23.3h-4.5l-0.8,2.5h-3.5l5-13.6h3.1l5,13.6H356L355.2,23.3z M351.5,20.8h2.9l-1.5-4.7L351.5,20.8z"/>
	<path class="st0" d="M362,25.8V12.2h4.9c1.8,0,3.1,0.3,4,1s1.4,1.6,1.4,2.8c0,0.7-0.2,1.3-0.5,1.8s-0.8,0.9-1.4,1.1
		c0.7,0.2,1.3,0.5,1.6,1s0.6,1.1,0.6,1.9c0,1.3-0.4,2.3-1.3,3c-0.8,0.7-2.1,1-3.8,1L362,25.8L362,25.8z M365.3,17.9h1.7
		c0.7,0,1.2-0.1,1.5-0.4c0.3-0.3,0.5-0.6,0.5-1.1c0-0.6-0.2-1-0.5-1.2c-0.3-0.3-0.9-0.4-1.6-0.4h-1.6V17.9z M365.3,20v3.3h2.1
		c0.6,0,1-0.1,1.4-0.4s0.5-0.7,0.5-1.1c0-1.1-0.6-1.7-1.7-1.7H365.3z"/>
	<path class="st0" d="M379.4,25.8h-3.3V12.2h3.3V25.8z"/>
	<path class="st0" d="M386.5,23.3h5.7v2.5h-9V12.2h3.3V23.3z"/>
	<path class="st0" d="M398.6,25.8h-3.3V12.2h3.3V25.8z"/>
	<path class="st0" d="M412.9,14.7h-4.1v11.1h-3.3V14.7h-4v-2.5h11.4V14.7z"/>
	<path class="st0" d="M420.9,18.1l2.5-5.9h3.5l-4.4,8.7v4.9h-3.3v-4.9l-4.4-8.7h3.5L420.9,18.1z"/>
</g>
<g>
	<path class="st0" d="M32.6,42.4c-1.7-0.5-2.9-1.1-3.7-1.8c-0.8-0.7-1.2-1.6-1.2-2.6c0-1.2,0.5-2.1,1.4-2.9c0.9-0.8,2.2-1.2,3.7-1.2
		c1,0,1.9,0.2,2.7,0.6c0.8,0.4,1.4,0.9,1.9,1.6c0.4,0.7,0.7,1.5,0.7,2.3h-2c0-0.9-0.3-1.6-0.9-2.1s-1.4-0.8-2.4-0.8
		c-1,0-1.7,0.2-2.3,0.6c-0.5,0.4-0.8,1-0.8,1.8c0,0.6,0.3,1.1,0.8,1.5c0.5,0.4,1.4,0.8,2.6,1.2c1.2,0.3,2.2,0.7,2.9,1.2
		c0.7,0.4,1.2,0.9,1.6,1.5c0.3,0.6,0.5,1.2,0.5,2c0,1.2-0.5,2.2-1.4,2.9c-0.9,0.7-2.2,1.1-3.8,1.1c-1,0-2-0.2-2.9-0.6
		c-0.9-0.4-1.6-0.9-2.1-1.6c-0.5-0.7-0.7-1.5-0.7-2.3h2c0,0.9,0.3,1.6,1,2.1c0.7,0.5,1.6,0.8,2.7,0.8c1,0,1.8-0.2,2.4-0.6
		c0.6-0.4,0.8-1,0.8-1.7s-0.3-1.3-0.8-1.7C34.9,43.1,33.9,42.7,32.6,42.4z"/>
	<path class="st0" d="M52.1,42c0,1.5-0.2,2.7-0.7,3.8c-0.5,1.1-1.2,1.9-2.1,2.5s-2,0.9-3.2,0.9c-1.2,0-2.2-0.3-3.1-0.9
		c-0.9-0.6-1.6-1.4-2.1-2.5c-0.5-1.1-0.8-2.3-0.8-3.7v-1.1c0-1.4,0.2-2.7,0.7-3.8c0.5-1.1,1.2-1.9,2.1-2.5c0.9-0.6,2-0.9,3.1-0.9
		c1.2,0,2.3,0.3,3.2,0.9c0.9,0.6,1.6,1.4,2.1,2.5c0.5,1.1,0.7,2.4,0.7,3.8V42z M50.2,41.1c0-1.8-0.4-3.1-1.1-4.1
		c-0.7-0.9-1.7-1.4-3-1.4c-1.2,0-2.2,0.5-2.9,1.4c-0.7,0.9-1.1,2.3-1.1,3.9V42c0,1.7,0.4,3.1,1.1,4c0.7,1,1.7,1.5,3,1.5
		c1.3,0,2.3-0.5,3-1.4c0.7-0.9,1.1-2.3,1.1-4V41.1z"/>
	<path class="st0" d="M57,47.4h7.1V49h-9.1V34.1h2V47.4z"/>
	<path class="st0" d="M66.4,49V34.1h4.2c1.3,0,2.4,0.3,3.4,0.9s1.8,1.4,2.3,2.5c0.5,1.1,0.8,2.3,0.8,3.7v1c0,1.4-0.3,2.6-0.8,3.7
		c-0.5,1.1-1.3,1.9-2.3,2.4c-1,0.6-2.2,0.9-3.5,0.9H66.4z M68.3,35.7v11.7h2.1c1.5,0,2.7-0.5,3.5-1.4c0.8-0.9,1.3-2.3,1.3-4v-0.9
		c0-1.7-0.4-3-1.2-4c-0.8-0.9-1.9-1.4-3.4-1.4H68.3z"/>
	<path class="st0" d="M96.8,42c0,1.5-0.2,2.7-0.7,3.8c-0.5,1.1-1.2,1.9-2.1,2.5s-2,0.9-3.2,0.9c-1.2,0-2.2-0.3-3.1-0.9
		c-0.9-0.6-1.6-1.4-2.1-2.5c-0.5-1.1-0.8-2.3-0.8-3.7v-1.1c0-1.4,0.2-2.7,0.7-3.8c0.5-1.1,1.2-1.9,2.1-2.5c0.9-0.6,2-0.9,3.1-0.9
		c1.2,0,2.3,0.3,3.2,0.9c0.9,0.6,1.6,1.4,2.1,2.5c0.5,1.1,0.7,2.4,0.7,3.8V42z M94.9,41.1c0-1.8-0.4-3.1-1.1-4.1
		c-0.7-0.9-1.7-1.4-3-1.4c-1.2,0-2.2,0.5-2.9,1.4c-0.7,0.9-1.1,2.3-1.1,3.9V42c0,1.7,0.4,3.1,1.1,4c0.7,1,1.7,1.5,3,1.5
		c1.3,0,2.3-0.5,3-1.4c0.7-0.9,1.1-2.3,1.1-4V41.1z"/>
	<path class="st0" d="M110.3,34.1v10.2c0,1.4-0.4,2.6-1.3,3.5c-0.9,0.9-2.1,1.4-3.6,1.5l-0.5,0c-1.6,0-2.9-0.4-3.9-1.3
		c-1-0.9-1.5-2.1-1.5-3.6V34.1h1.9v10.1c0,1.1,0.3,1.9,0.9,2.5c0.6,0.6,1.4,0.9,2.5,0.9c1.1,0,2-0.3,2.6-0.9
		c0.6-0.6,0.9-1.4,0.9-2.5V34.1H110.3z"/>
	<path class="st0" d="M123.7,35.7h-4.8V49h-2V35.7h-4.8v-1.6h11.5V35.7z"/>
</g>
</svg>
