<?xml version="1.0" encoding="utf-8"?>
<!-- Generator: Adobe Illustrator 16.0.0, SVG Export Plug-In . SVG Version: 6.00 Build 0)  -->
<!DOCTYPE svg PUBLIC "-//W3C//DTD SVG 1.1//EN" "http://www.w3.org/Graphics/SVG/1.1/DTD/svg11.dtd">
<svg version="1.1" id="Layer_1" xmlns="http://www.w3.org/2000/svg" xmlns:xlink="http://www.w3.org/1999/xlink" x="0px" y="0px"
	 width="450px" height="58.537px" viewBox="0 0 450 58.537" enable-background="new 0 0 450 58.537" xml:space="preserve">
<g>
	<path fill="#FFFFFF" d="M31.504,21.016h-1.778v4.818h-3.284V12.213h5.361c1.615,0,2.878,0.358,3.789,1.075
		c0.911,0.717,1.366,1.729,1.366,3.037c0,0.947-0.192,1.732-0.575,2.355c-0.384,0.623-0.984,1.128-1.801,1.514l2.844,5.5v0.141
		h-3.518L31.504,21.016z M29.727,18.49h2.077c0.624,0,1.093-0.164,1.408-0.492s0.473-0.786,0.473-1.374
		c0-0.587-0.159-1.049-0.478-1.383c-0.318-0.334-0.786-0.502-1.403-0.502h-2.077V18.49z"/>
	<path fill="#FFFFFF" d="M48.921,20.053h-5.164v3.255h6.1v2.526h-9.383V12.213h9.402v2.536h-6.118v2.872h5.164V20.053z"/>
	<path fill="#FFFFFF" d="M63.879,24.15c-0.505,0.562-1.244,1.014-2.217,1.356c-0.973,0.343-2.039,0.515-3.199,0.515
		c-1.784,0-3.209-0.545-4.275-1.637c-1.066-1.091-1.637-2.61-1.712-4.556l-0.009-1.179c0-1.341,0.237-2.512,0.711-3.513
		s1.152-1.771,2.035-2.311c0.882-0.539,1.904-0.809,3.064-0.809c1.696,0,3.014,0.388,3.952,1.165
		c0.939,0.777,1.486,1.935,1.642,3.476h-3.162c-0.112-0.761-0.355-1.303-0.729-1.628c-0.375-0.324-0.904-0.486-1.59-0.486
		c-0.823,0-1.459,0.35-1.909,1.048c-0.449,0.699-0.677,1.696-0.683,2.994v0.823c0,1.359,0.232,2.381,0.697,3.063
		c0.464,0.683,1.196,1.024,2.194,1.024c0.854,0,1.49-0.19,1.908-0.57v-2.114h-2.283v-2.255h5.566V24.15z"/>
	<path fill="#FFFFFF" d="M70.819,25.834h-3.274V12.213h3.274V25.834z"/>
	<path fill="#FFFFFF" d="M81.66,22.213c0-0.48-0.17-0.854-0.51-1.123c-0.34-0.268-0.937-0.545-1.792-0.833
		c-0.854-0.287-1.553-0.564-2.096-0.833c-1.765-0.867-2.647-2.058-2.647-3.574c0-0.754,0.22-1.42,0.66-1.997
		c0.439-0.577,1.062-1.026,1.866-1.347s1.709-0.482,2.713-0.482c0.979,0,1.857,0.175,2.633,0.524c0.777,0.35,1.38,0.847,1.811,1.492
		c0.43,0.646,0.646,1.383,0.646,2.212h-3.274c0-0.555-0.17-0.985-0.51-1.291c-0.34-0.305-0.8-0.458-1.38-0.458
		c-0.586,0-1.049,0.13-1.389,0.389s-0.51,0.588-0.51,0.987c0,0.349,0.187,0.666,0.561,0.949c0.375,0.284,1.032,0.577,1.974,0.879
		c0.941,0.303,1.715,0.628,2.32,0.978c1.472,0.848,2.208,2.018,2.208,3.508c0,1.191-0.449,2.127-1.347,2.807s-2.13,1.02-3.695,1.02
		c-1.104,0-2.104-0.198-2.998-0.594c-0.895-0.396-1.569-0.939-2.021-1.628s-0.678-1.483-0.678-2.381h3.293
		c0,0.729,0.188,1.268,0.566,1.614s0.99,0.519,1.838,0.519c0.542,0,0.971-0.117,1.286-0.351S81.66,22.638,81.66,22.213z"/>
	<path fill="#FFFFFF" d="M98.853,14.749h-4.088v11.085h-3.284V14.749h-4.013v-2.536h11.385V14.749z"/>
	<path fill="#FFFFFF" d="M110.217,20.053h-5.164v3.255h6.1v2.526h-9.383V12.213h9.402v2.536h-6.118v2.872h5.164V20.053z"/>
	<path fill="#FFFFFF" d="M119.084,21.016h-1.778v4.818h-3.284V12.213h5.361c1.615,0,2.878,0.358,3.789,1.075
		c0.911,0.717,1.366,1.729,1.366,3.037c0,0.947-0.192,1.732-0.575,2.355c-0.384,0.623-0.984,1.128-1.801,1.514l2.844,5.5v0.141
		h-3.518L119.084,21.016z M117.307,18.49h2.077c0.624,0,1.093-0.164,1.408-0.492s0.473-0.786,0.473-1.374
		c0-0.587-0.159-1.049-0.478-1.383c-0.318-0.334-0.786-0.502-1.403-0.502h-2.077V18.49z"/>
	<path fill="#FFFFFF" d="M145.734,25.834h-3.265l-4.827-8.476v8.476h-3.284V12.213h3.284l4.818,8.476v-8.476h3.274V25.834z"/>
	<path fill="#FFFFFF" d="M160.878,19.304c0,1.329-0.247,2.504-0.739,3.527s-1.193,1.81-2.1,2.362
		c-0.908,0.552-1.941,0.828-3.101,0.828c-1.16,0-2.189-0.267-3.087-0.8s-1.598-1.295-2.1-2.287s-0.766-2.13-0.791-3.415v-0.767
		c0-1.335,0.245-2.512,0.734-3.532s1.191-1.807,2.105-2.362c0.914-0.555,1.954-0.833,3.12-0.833c1.154,0,2.183,0.275,3.087,0.823
		c0.904,0.549,1.607,1.33,2.109,2.344c0.502,1.013,0.756,2.175,0.763,3.484V19.304z M157.539,18.733
		c0-1.353-0.226-2.381-0.678-3.083s-1.099-1.052-1.941-1.052c-1.646,0-2.517,1.235-2.61,3.705l-0.009,1.001
		c0,1.334,0.221,2.361,0.664,3.078c0.443,0.717,1.101,1.076,1.974,1.076c0.829,0,1.469-0.353,1.917-1.057
		c0.449-0.705,0.677-1.718,0.683-3.041V18.733z"/>
	<path fill="#FFFFFF" d="M174.656,20.754l1.562-8.542h3.256l-2.891,13.621h-3.405l-1.824-7.765l-1.787,7.765h-3.396l-2.9-13.621
		h3.265l1.562,8.542l1.871-8.542h2.788L174.656,20.754z"/>
	<path fill="#FFFFFF" d="M182.223,24.421c0-0.461,0.167-0.84,0.5-1.137c0.334-0.296,0.75-0.444,1.249-0.444s0.915,0.148,1.249,0.444
		c0.333,0.296,0.5,0.675,0.5,1.137s-0.167,0.84-0.5,1.137c-0.334,0.296-0.75,0.444-1.249,0.444s-0.915-0.148-1.249-0.444
		C182.39,25.262,182.223,24.883,182.223,24.421z M185.272,21.521h-2.554l-0.402-9.309h3.358L185.272,21.521z"/>
	<path fill="#FFFFFF" d="M198.694,23.308h5.716v2.526h-9V12.213h3.284V23.308z"/>
	<path fill="#FFFFFF" d="M210.826,25.834h-3.274V12.213h3.274V25.834z"/>
	<path fill="#FFFFFF" d="M218.954,12.213l3.04,9.477l3.031-9.477h4.322v13.621h-3.293v-3.181l0.318-6.511l-3.293,9.692h-2.17
		l-3.302-9.701l0.318,6.521v3.181h-3.284V12.213H218.954z"/>
	<path fill="#FFFFFF" d="M236.465,25.834h-3.273V12.213h3.273V25.834z"/>
	<path fill="#FFFFFF" d="M250.701,14.749h-4.088v11.085h-3.283V14.749h-4.014v-2.536h11.385V14.749z"/>
	<path fill="#FFFFFF" d="M262.066,20.053h-5.164v3.255h6.1v2.526h-9.383V12.213h9.402v2.536h-6.119v2.872h5.164V20.053z"/>
	<path fill="#FFFFFF" d="M265.873,25.834V12.213h4.387c1.203,0,2.285,0.273,3.246,0.819s1.711,1.316,2.25,2.311
		c0.539,0.995,0.813,2.11,0.818,3.345v0.626c0,1.248-0.264,2.365-0.791,3.354c-0.527,0.988-1.268,1.762-2.227,2.32
		c-0.957,0.558-2.025,0.84-3.203,0.847H265.873z M269.156,14.749v8.56h1.141c0.941,0,1.666-0.335,2.17-1.006
		c0.506-0.67,0.758-1.667,0.758-2.989v-0.589c0-1.316-0.252-2.308-0.758-2.975c-0.504-0.667-1.24-1.001-2.207-1.001H269.156z"/>
	<path fill="#FFFFFF" d="M293.832,23.29h-4.5l-0.785,2.544h-3.51l4.996-13.621h3.088l5.033,13.621h-3.527L293.832,23.29z
		 M290.117,20.754h2.928l-1.469-4.725L290.117,20.754z"/>
	<path fill="#FFFFFF" d="M305.244,22.129l2.713-9.917h3.666l-4.584,13.621h-3.592L298.9,12.213h3.641L305.244,22.129z"/>
	<path fill="#FFFFFF" d="M321.184,23.29h-4.5l-0.785,2.544h-3.51l4.996-13.621h3.088l5.033,13.621h-3.527L321.184,23.29z
		 M317.469,20.754h2.928l-1.469-4.725L317.469,20.754z"/>
	<path fill="#FFFFFF" d="M331.527,25.834h-3.273V12.213h3.273V25.834z"/>
	<path fill="#FFFFFF" d="M338.627,23.308h5.715v2.526h-8.998V12.213h3.283V23.308z"/>
	<path fill="#FFFFFF" d="M355.174,23.29h-4.5l-0.785,2.544h-3.508l4.996-13.621h3.086l5.033,13.621h-3.527L355.174,23.29z
		 M351.461,20.754h2.928l-1.469-4.725L351.461,20.754z"/>
	<path fill="#FFFFFF" d="M362.021,25.834V12.213h4.893c1.752,0,3.084,0.321,3.998,0.964s1.371,1.575,1.371,2.797
		c0,0.705-0.162,1.307-0.486,1.806s-0.801,0.867-1.432,1.104c0.711,0.187,1.256,0.537,1.637,1.048s0.57,1.135,0.57,1.871
		c0,1.335-0.422,2.337-1.268,3.008c-0.844,0.67-2.096,1.012-3.756,1.024H362.021z M365.305,17.892h1.711
		c0.719-0.006,1.229-0.138,1.535-0.394c0.305-0.256,0.459-0.635,0.459-1.135c0-0.576-0.166-0.99-0.496-1.243
		c-0.332-0.253-0.865-0.38-1.6-0.38h-1.609V17.892z M365.305,20.043v3.265h2.15c0.594,0,1.049-0.136,1.367-0.407
		c0.318-0.271,0.477-0.653,0.477-1.146c0-1.135-0.564-1.706-1.693-1.712H365.305z"/>
	<path fill="#FFFFFF" d="M379.41,25.834h-3.273V12.213h3.273V25.834z"/>
	<path fill="#FFFFFF" d="M386.508,23.308h5.717v2.526h-9V12.213h3.283V23.308z"/>
	<path fill="#FFFFFF" d="M398.641,25.834h-3.273V12.213h3.273V25.834z"/>
	<path fill="#FFFFFF" d="M412.877,14.749h-4.088v11.085h-3.283V14.749h-4.014v-2.536h11.385V14.749z"/>
	<path fill="#FFFFFF" d="M420.932,18.125l2.506-5.913h3.547l-4.389,8.729v4.893h-3.33v-4.893l-4.379-8.729h3.527L420.932,18.125z"/>
	<path fill="#FFFFFF" d="M26.658,43.296c0-1.409,0.188-2.763,0.566-4.061c0.377-1.297,0.94-2.476,1.688-3.536
		c0.749-1.061,1.525-1.809,2.33-2.245l0.355,1.142c-0.911,0.698-1.657,1.765-2.24,3.199c-0.583,1.434-0.903,3.04-0.959,4.817
		l-0.009,0.795c0,2.408,0.439,4.497,1.319,6.269c0.53,1.06,1.16,1.89,1.89,2.488l-0.355,1.057c-0.83-0.461-1.622-1.234-2.376-2.319
		C27.394,48.781,26.658,46.246,26.658,43.296z"/>
	<path fill="#FFFFFF" d="M33.543,48.825V35.204h3.845c1.185,0,2.233,0.262,3.144,0.786c0.91,0.524,1.614,1.269,2.109,2.235
		s0.747,2.077,0.753,3.33v0.871c0,1.284-0.248,2.41-0.744,3.377c-0.496,0.967-1.204,1.709-2.124,2.227s-1.991,0.782-3.213,0.795
		H33.543z M35.339,36.672v10.684h1.89c1.384,0,2.461-0.431,3.232-1.292c0.77-0.861,1.155-2.088,1.155-3.68v-0.796
		c0-1.549-0.363-2.752-1.09-3.609c-0.727-0.858-1.757-1.294-3.092-1.307H35.339z"/>
	<path fill="#FFFFFF" d="M50.037,49.012c-1.372,0-2.489-0.451-3.349-1.353c-0.861-0.9-1.291-2.106-1.291-3.615v-0.318
		c0-1.004,0.192-1.9,0.575-2.689c0.384-0.789,0.92-1.406,1.609-1.853c0.689-0.445,1.436-0.668,2.241-0.668
		c1.316,0,2.339,0.434,3.068,1.3c0.73,0.866,1.095,2.108,1.095,3.724v0.72h-6.857c0.025,0.998,0.316,1.805,0.875,2.419
		c0.558,0.614,1.268,0.921,2.128,0.921c0.611,0,1.129-0.125,1.553-0.374c0.424-0.249,0.795-0.58,1.113-0.992l1.057,0.823
		C53.005,48.36,51.733,49.012,50.037,49.012z M49.821,39.938c-0.699,0-1.285,0.254-1.759,0.762
		c-0.474,0.509-0.767,1.221-0.879,2.138h5.07v-0.131c-0.05-0.88-0.287-1.561-0.711-2.044C51.119,40.179,50.545,39.938,49.821,39.938
		z"/>
	<path fill="#FFFFFF" d="M62.235,48.825c-0.1-0.199-0.181-0.555-0.243-1.066c-0.804,0.836-1.765,1.254-2.881,1.254
		c-0.998,0-1.816-0.282-2.456-0.847s-0.959-1.28-0.959-2.147c0-1.054,0.401-1.872,1.202-2.455c0.801-0.584,1.929-0.875,3.382-0.875
		h1.684v-0.795c0-0.605-0.181-1.087-0.542-1.445c-0.362-0.359-0.895-0.539-1.6-0.539c-0.617,0-1.135,0.156-1.553,0.469
		c-0.418,0.312-0.627,0.689-0.627,1.132h-1.74c0-0.505,0.179-0.993,0.538-1.464c0.359-0.471,0.845-0.844,1.459-1.118
		s1.29-0.411,2.025-0.411c1.166,0,2.08,0.291,2.741,0.874c0.661,0.583,1.004,1.386,1.029,2.409v4.658
		c0,0.93,0.119,1.669,0.355,2.218v0.149H62.235z M59.363,47.505c0.542,0,1.057-0.14,1.543-0.421c0.486-0.28,0.839-0.646,1.057-1.095
		v-2.076h-1.356c-2.121,0-3.181,0.62-3.181,1.861c0,0.543,0.181,0.967,0.542,1.272S58.795,47.505,59.363,47.505z"/>
	<path fill="#FFFFFF" d="M65.986,43.679c0-1.553,0.368-2.802,1.104-3.747c0.736-0.944,1.699-1.416,2.891-1.416
		c1.185,0,2.124,0.404,2.816,1.215v-5.275h1.73v14.369h-1.59l-0.084-1.085c-0.692,0.848-1.656,1.272-2.891,1.272
		c-1.173,0-2.128-0.48-2.868-1.441c-0.739-0.96-1.108-2.214-1.108-3.761V43.679z M67.717,43.875c0,1.148,0.237,2.046,0.711,2.694
		c0.474,0.649,1.128,0.974,1.964,0.974c1.098,0,1.899-0.493,2.404-1.479v-4.649c-0.518-0.954-1.313-1.431-2.386-1.431
		c-0.848,0-1.509,0.326-1.983,0.981C67.954,41.622,67.717,42.591,67.717,43.875z"/>
	<path fill="#FFFFFF" d="M79.093,48.825h-1.73V34.456h1.73V48.825z"/>
	<path fill="#FFFFFF" d="M81.871,36.018c0-0.281,0.086-0.518,0.257-0.711s0.426-0.291,0.763-0.291c0.336,0,0.592,0.098,0.767,0.291
		c0.174,0.193,0.262,0.43,0.262,0.711c0,0.28-0.087,0.514-0.262,0.701C83.483,36.907,83.228,37,82.891,37
		c-0.337,0-0.591-0.094-0.763-0.281S81.871,36.298,81.871,36.018z M83.742,48.825h-1.73V38.703h1.73V48.825z"/>
	<path fill="#FFFFFF" d="M88.148,38.703l0.056,1.272c0.773-0.973,1.784-1.459,3.031-1.459c2.139,0,3.218,1.206,3.237,3.619v6.689
		h-1.731v-6.698c-0.006-0.729-0.173-1.269-0.5-1.618c-0.327-0.35-0.837-0.523-1.529-0.523c-0.562,0-1.054,0.148-1.478,0.448
		c-0.424,0.3-0.755,0.692-0.992,1.179v7.213h-1.731V38.703H88.148z"/>
	<path fill="#FFFFFF" d="M101.283,49.012c-1.372,0-2.489-0.451-3.349-1.353c-0.861-0.9-1.291-2.106-1.291-3.615v-0.318
		c0-1.004,0.192-1.9,0.575-2.689c0.384-0.789,0.92-1.406,1.609-1.853c0.689-0.445,1.436-0.668,2.241-0.668
		c1.316,0,2.339,0.434,3.068,1.3c0.73,0.866,1.095,2.108,1.095,3.724v0.72h-6.857c0.025,0.998,0.316,1.805,0.875,2.419
		c0.558,0.614,1.268,0.921,2.128,0.921c0.611,0,1.129-0.125,1.553-0.374c0.424-0.249,0.795-0.58,1.113-0.992l1.057,0.823
		C104.251,48.36,102.979,49.012,101.283,49.012z M101.068,39.938c-0.699,0-1.285,0.254-1.759,0.762
		c-0.474,0.509-0.767,1.221-0.879,2.138h5.07v-0.131c-0.05-0.88-0.287-1.561-0.711-2.044
		C102.365,40.179,101.792,39.938,101.068,39.938z"/>
	<path fill="#FFFFFF" d="M107.176,47.917c0-0.3,0.089-0.549,0.267-0.749c0.178-0.199,0.444-0.299,0.8-0.299s0.625,0.1,0.81,0.299
		c0.184,0.2,0.276,0.449,0.276,0.749c0,0.287-0.092,0.527-0.276,0.72c-0.184,0.193-0.454,0.29-0.81,0.29s-0.622-0.097-0.8-0.29
		C107.265,48.445,107.176,48.205,107.176,47.917z M107.186,39.657c0-0.299,0.089-0.549,0.267-0.748c0.178-0.199,0.445-0.3,0.8-0.3
		s0.625,0.101,0.809,0.3c0.184,0.199,0.276,0.449,0.276,0.748c0,0.287-0.092,0.527-0.276,0.721
		c-0.184,0.193-0.454,0.289-0.809,0.289s-0.622-0.096-0.8-0.289C107.274,40.184,107.186,39.944,107.186,39.657z"/>
	<path fill="#FFFFFF" d="M122.126,48.825h-1.74V37.29l-3.489,1.282V37l4.958-1.862h0.271V48.825z"/>
	<path fill="#FFFFFF" d="M127.992,41.996l0.692-6.792h6.979v1.6h-5.51l-0.412,3.715c0.667-0.394,1.425-0.59,2.273-0.59
		c1.241,0,2.227,0.41,2.956,1.23c0.73,0.82,1.095,1.929,1.095,3.325c0,1.403-0.379,2.509-1.137,3.316s-1.816,1.212-3.176,1.212
		c-1.204,0-2.186-0.334-2.947-1.001c-0.761-0.668-1.194-1.591-1.301-2.77h1.637c0.106,0.779,0.384,1.367,0.833,1.764
		c0.449,0.396,1.042,0.594,1.778,0.594c0.804,0,1.436-0.274,1.894-0.823c0.458-0.549,0.688-1.307,0.688-2.273
		c0-0.91-0.248-1.642-0.744-2.193c-0.496-0.553-1.155-0.828-1.979-0.828c-0.754,0-1.347,0.166-1.777,0.496l-0.458,0.374
		L127.992,41.996z"/>
	<path fill="#FFFFFF" d="M150.668,45.26h-5.707l-1.282,3.564h-1.853l5.202-13.621h1.572l5.21,13.621h-1.843L150.668,45.26z
		 M145.504,43.792h4.631l-2.32-6.371L145.504,43.792z"/>
	<path fill="#FFFFFF" d="M161.52,47.824c-0.673,0.792-1.662,1.188-2.965,1.188c-1.079,0-1.9-0.313-2.465-0.94
		s-0.85-1.555-0.856-2.783v-6.586h1.73v6.539c0,1.534,0.624,2.302,1.871,2.302c1.322,0,2.201-0.493,2.638-1.479v-7.362h1.73v10.122
		h-1.646L161.52,47.824z"/>
	<path fill="#FFFFFF" d="M165.42,43.679c0-1.577,0.365-2.833,1.095-3.765c0.729-0.933,1.696-1.398,2.9-1.398
		c1.235,0,2.199,0.436,2.891,1.309l0.084-1.122h1.581v9.879c0,1.31-0.388,2.342-1.165,3.097c-0.776,0.754-1.819,1.132-3.129,1.132
		c-0.73,0-1.444-0.156-2.143-0.468c-0.698-0.313-1.232-0.739-1.6-1.281l0.898-1.039c0.742,0.917,1.65,1.375,2.723,1.375
		c0.842,0,1.498-0.236,1.969-0.711c0.471-0.474,0.706-1.141,0.706-2.002v-0.87c-0.692,0.799-1.637,1.198-2.834,1.198
		c-1.185,0-2.144-0.478-2.877-1.432S165.42,45.326,165.42,43.679z M167.161,43.875c0,1.142,0.234,2.038,0.702,2.69
		c0.468,0.651,1.123,0.978,1.964,0.978c1.091,0,1.893-0.496,2.404-1.488v-4.621c-0.53-0.967-1.325-1.449-2.386-1.449
		c-0.842,0-1.5,0.326-1.974,0.981C167.397,41.622,167.161,42.591,167.161,43.875z"/>
	<path fill="#FFFFFF" d="M182.83,47.824c-0.673,0.792-1.662,1.188-2.965,1.188c-1.079,0-1.9-0.313-2.465-0.94
		s-0.85-1.555-0.856-2.783v-6.586h1.73v6.539c0,1.534,0.624,2.302,1.871,2.302c1.322,0,2.201-0.493,2.638-1.479v-7.362h1.73v10.122
		h-1.646L182.83,47.824z"/>
	<path fill="#FFFFFF" d="M193.036,46.14c0-0.468-0.176-0.831-0.528-1.09c-0.353-0.259-0.967-0.482-1.843-0.669
		c-0.876-0.188-1.572-0.412-2.086-0.674s-0.895-0.573-1.141-0.936c-0.247-0.361-0.37-0.792-0.37-1.291
		c0-0.829,0.351-1.531,1.052-2.105c0.702-0.573,1.598-0.859,2.69-0.859c1.147,0,2.078,0.296,2.792,0.889
		c0.714,0.592,1.071,1.35,1.071,2.273h-1.74c0-0.475-0.201-0.883-0.604-1.227c-0.402-0.343-0.909-0.514-1.52-0.514
		c-0.63,0-1.123,0.137-1.479,0.411c-0.355,0.274-0.533,0.633-0.533,1.075c0,0.418,0.166,0.733,0.496,0.945
		c0.331,0.213,0.928,0.415,1.792,0.608s1.563,0.424,2.1,0.692c0.536,0.268,0.934,0.591,1.193,0.968
		c0.259,0.378,0.388,0.838,0.388,1.38c0,0.904-0.362,1.63-1.085,2.175c-0.723,0.546-1.662,0.819-2.815,0.819
		c-0.811,0-1.528-0.144-2.152-0.431s-1.112-0.688-1.464-1.202c-0.353-0.515-0.529-1.071-0.529-1.67h1.731
		c0.031,0.58,0.263,1.04,0.697,1.38c0.433,0.34,1.005,0.51,1.717,0.51c0.655,0,1.18-0.133,1.576-0.397S193.036,46.583,193.036,46.14
		z"/>
	<path fill="#FFFFFF" d="M199.37,36.251v2.451h1.89v1.338h-1.89v6.285c0,0.405,0.084,0.71,0.252,0.913
		c0.168,0.203,0.456,0.305,0.861,0.305c0.2,0,0.474-0.038,0.823-0.112v1.395c-0.455,0.124-0.898,0.187-1.328,0.187
		c-0.773,0-1.357-0.234-1.75-0.702c-0.393-0.468-0.589-1.132-0.589-1.992v-6.277h-1.843v-1.338h1.843v-2.451H199.37z"/>
	<path fill="#FFFFFF" d="M216.77,48.825h-8.925v-1.244l4.715-5.238c0.699-0.793,1.18-1.437,1.445-1.933
		c0.265-0.495,0.398-1.009,0.398-1.538c0-0.711-0.215-1.295-0.646-1.75c-0.431-0.455-1.004-0.684-1.722-0.684
		c-0.86,0-1.529,0.246-2.006,0.734c-0.477,0.49-0.716,1.172-0.716,2.045h-1.73c0-1.254,0.404-2.268,1.211-3.041
		s1.888-1.16,3.241-1.16c1.266,0,2.267,0.332,3.003,0.997c0.735,0.664,1.104,1.548,1.104,2.651c0,1.342-0.854,2.938-2.563,4.79
		l-3.648,3.957h6.838V48.825z"/>
	<path fill="#FFFFFF" d="M227.145,43.015c0,2.027-0.346,3.533-1.037,4.519c-0.693,0.985-1.775,1.479-3.247,1.479
		c-1.454,0-2.529-0.482-3.228-1.445c-0.699-0.964-1.061-2.403-1.085-4.317v-2.312c0-2.002,0.346-3.488,1.039-4.462
		c0.692-0.973,1.777-1.46,3.255-1.46c1.466,0,2.545,0.471,3.237,1.408c0.693,0.939,1.049,2.388,1.066,4.346V43.015z M225.414,40.649
		c0-1.466-0.206-2.534-0.617-3.205c-0.412-0.67-1.063-1.006-1.956-1.006c-0.886,0-1.531,0.334-1.937,1.002
		c-0.405,0.667-0.614,1.693-0.626,3.078v2.769c0,1.472,0.213,2.559,0.641,3.26c0.427,0.702,1.074,1.053,1.941,1.053
		c0.854,0,1.489-0.33,1.903-0.991c0.415-0.661,0.632-1.703,0.65-3.125V40.649z"/>
	<path fill="#FFFFFF" d="M235.049,48.825h-1.738V37.29l-3.49,1.282V37l4.959-1.862h0.27V48.825z"/>
	<path fill="#FFFFFF" d="M246.752,42.837c-0.361,0.431-0.793,0.776-1.295,1.038c-0.502,0.263-1.053,0.394-1.652,0.394
		c-0.785,0-1.469-0.193-2.053-0.58c-0.582-0.387-1.033-0.931-1.352-1.633c-0.318-0.701-0.477-1.476-0.477-2.325
		c0-0.91,0.172-1.73,0.52-2.459c0.346-0.73,0.836-1.289,1.473-1.676s1.379-0.58,2.227-0.58c1.348,0,2.408,0.504,3.186,1.512
		c0.775,1.007,1.164,2.381,1.164,4.121v0.505c0,2.65-0.523,4.585-1.572,5.805c-1.047,1.22-2.627,1.845-4.742,1.876h-0.336v-1.469
		h0.363c1.43-0.025,2.527-0.397,3.293-1.116C246.266,45.531,246.684,44.393,246.752,42.837z M244.086,42.837
		c0.58,0,1.115-0.178,1.605-0.533c0.488-0.355,0.846-0.795,1.07-1.319v-0.691c0-1.136-0.246-2.059-0.738-2.77
		c-0.494-0.711-1.117-1.066-1.871-1.066c-0.762,0-1.373,0.291-1.834,0.875c-0.461,0.583-0.693,1.352-0.693,2.306
		c0,0.929,0.225,1.694,0.67,2.296C242.74,42.537,243.338,42.837,244.086,42.837z"/>
	<path fill="#FFFFFF" d="M255.051,43.389c0,1.392-0.182,2.725-0.547,4s-0.924,2.452-1.676,3.531
		c-0.75,1.079-1.537,1.846-2.361,2.301l-0.365-1.057c0.961-0.736,1.732-1.879,2.316-3.429c0.582-1.55,0.881-3.27,0.893-5.159v-0.3
		c0-1.31-0.137-2.526-0.412-3.653c-0.273-1.125-0.656-2.134-1.145-3.025c-0.49-0.893-1.041-1.588-1.652-2.086l0.365-1.058
		c0.824,0.455,1.607,1.216,2.354,2.282c0.744,1.066,1.303,2.242,1.674,3.527S255.051,41.924,255.051,43.389z"/>
</g>
</svg>
