<?xml version="1.0" encoding="utf-8"?>
<!-- Generator: Adobe Illustrator 16.0.0, SVG Export Plug-In . SVG Version: 6.00 Build 0)  -->
<!DOCTYPE svg PUBLIC "-//W3C//DTD SVG 1.1//EN" "http://www.w3.org/Graphics/SVG/1.1/DTD/svg11.dtd">
<svg version="1.1" id="Layer_1" xmlns="http://www.w3.org/2000/svg" xmlns:xlink="http://www.w3.org/1999/xlink" x="0px" y="0px"
	 width="528px" height="527px" viewBox="0 0 528 527" enable-background="new 0 0 528 527" xml:space="preserve">
<g>
	<path fill="#FFFFFF" d="M210.057,245.39h-39.654V119.153l-38.951,11.38v-30.034l74.968-25.928h3.637V245.39z"/>
	<path fill="#FFFFFF" d="M357.061,72.107v31.09h-1.76c-14.783,0-26.926,3.54-36.428,10.618c-9.504,7.08-15.352,16.915-17.541,29.506
		c8.918-8.759,20.18-13.14,33.789-13.14c14.783,0,26.553,5.397,35.314,16.19c8.758,10.793,13.139,24.951,13.139,42.47
		c0,10.873-2.563,20.845-7.684,29.917c-5.125,9.074-12.281,16.172-21.471,21.294c-9.191,5.124-19.377,7.684-30.561,7.684
		c-12.125,0-22.957-2.757-32.498-8.271c-9.545-5.514-16.975-13.393-22.291-23.64c-5.32-10.245-8.057-22.056-8.213-35.431v-15.838
		c0-17.598,3.772-33.416,11.32-47.456c7.549-14.038,18.322-25.048,32.322-33.026c14-7.978,29.525-11.967,46.576-11.967H357.061z
		 M321.395,160.45c-5.24,0-9.619,1.214-13.141,3.637c-3.52,2.425-6.141,5.396-7.859,8.917v11.849
		c0,21.587,7.469,32.381,22.408,32.381c6.021,0,11.047-2.699,15.076-8.095c4.027-5.397,6.041-12.161,6.041-20.297
		c0-8.368-2.053-15.193-6.158-20.472C333.654,163.09,328.199,160.45,321.395,160.45z"/>
</g>
<g>
	<path fill="#FFFFFF" d="M126.085,296.456h-15.682v42.648H99.856v-42.648h-15.47v-8.544h41.7V296.456z"/>
	<path fill="#FFFFFF" d="M162.897,316.919h-20.252v13.712h23.768v8.474h-34.316v-51.192h34.246v8.544h-23.698v12.2h20.252V316.919z"
		/>
	<path fill="#FFFFFF" d="M172.602,339.104v-51.192h15.751c4.5,0,8.526,1.014,12.077,3.041c3.551,2.028,6.323,4.911,8.315,8.649
		c1.992,3.739,2.989,7.987,2.989,12.745v2.356c0,4.758-0.979,8.989-2.936,12.692c-1.958,3.704-4.717,6.574-8.28,8.614
		c-3.563,2.039-7.583,3.07-12.06,3.094H172.602z M183.149,296.456v34.175h5.098c4.125,0,7.278-1.348,9.458-4.043
		s3.293-6.552,3.34-11.567v-2.708c0-5.203-1.079-9.146-3.235-11.831c-2.157-2.684-5.309-4.025-9.458-4.025H183.149z"/>
	<path fill="#FFFFFF" d="M263.876,325.674c0-1.992-0.703-3.521-2.109-4.589c-1.406-1.066-3.938-2.191-7.595-3.375
		c-3.656-1.184-6.552-2.35-8.684-3.498c-5.813-3.142-8.72-7.372-8.72-12.693c0-2.766,0.779-5.232,2.338-7.4
		c1.559-2.168,3.797-3.862,6.716-5.081c2.918-1.219,6.193-1.828,9.827-1.828c3.656,0,6.914,0.662,9.774,1.986
		c2.859,1.324,5.081,3.194,6.663,5.608s2.373,5.156,2.373,8.227h-10.548c0-2.343-0.738-4.166-2.215-5.467
		c-1.477-1.301-3.551-1.951-6.223-1.951c-2.579,0-4.583,0.545-6.013,1.635s-2.145,2.525-2.145,4.307c0,1.665,0.838,3.06,2.514,4.185
		s4.143,2.18,7.401,3.164c6,1.806,10.372,4.043,13.115,6.716c2.742,2.672,4.113,6,4.113,9.985c0,4.43-1.676,7.905-5.027,10.425
		c-3.353,2.52-7.865,3.779-13.537,3.779c-3.938,0-7.524-0.721-10.759-2.162c-3.234-1.441-5.702-3.416-7.401-5.925
		c-1.7-2.508-2.549-5.414-2.549-8.72h10.583c0,5.649,3.375,8.474,10.126,8.474c2.508,0,4.465-0.51,5.872-1.529
		S263.876,327.502,263.876,325.674z"/>
	<path fill="#FFFFFF" d="M320.131,296.456H304.45v42.648h-10.548v-42.648h-15.471v-8.544h41.699V296.456z"/>
	<path fill="#FFFFFF" d="M344.356,310.977l10.653-23.064h11.532l-16.806,32.628v18.564h-10.724V320.54l-16.807-32.628h11.567
		L344.356,310.977z"/>
	<path fill="#FFFFFF" d="M381.767,330.631h22.396v8.474h-32.945v-51.192h10.549V330.631z"/>
	<path fill="#FFFFFF" d="M441.011,316.919h-20.252v13.712h23.768v8.474H410.21v-51.192h34.246v8.544h-23.697v12.2h20.252V316.919z"
		/>
</g>
<g>
	<path fill="#FFFFFF" d="M173.558,387.619h-20.819v56.454h-16.722v-56.454h-20.438v-12.91h57.979V387.619z"/>
	<path fill="#FFFFFF" d="M214.291,431.115h-22.915l-4.002,12.958h-17.865l25.44-69.364h15.721l25.631,69.364H218.34L214.291,431.115
		z M195.377,418.204h14.911l-7.479-24.059L195.377,418.204z"/>
	<path fill="#FFFFFF" d="M258.072,431.21h29.107v12.863h-45.83v-69.364h16.722V431.21z"/>
	<path fill="#FFFFFF" d="M317.813,418.252l-6.86,7.527v18.294h-16.722v-69.364h16.722v30.585l5.813-8.813l14.959-21.771H352.4
		l-23.438,30.68l23.438,38.685h-19.818L317.813,418.252z"/>
	<path fill="#FFFFFF" d="M392.419,425.637c0-2.445-0.865-4.352-2.597-5.717s-4.771-2.779-9.123-4.24s-7.908-2.874-10.671-4.24
		c-8.989-4.414-13.482-10.481-13.482-18.199c0-3.842,1.119-7.232,3.358-10.171c2.239-2.938,5.407-5.224,9.504-6.86
		c4.098-1.635,8.702-2.453,13.816-2.453c4.985,0,9.456,0.89,13.41,2.668c3.954,1.779,7.027,4.312,9.219,7.599
		s3.287,7.043,3.287,11.267h-16.674c0-2.826-0.866-5.018-2.597-6.574c-1.731-1.556-4.073-2.334-7.027-2.334
		c-2.985,0-5.344,0.659-7.074,1.977c-1.731,1.318-2.597,2.994-2.597,5.026c0,1.779,0.953,3.391,2.858,4.835
		c1.906,1.446,5.257,2.938,10.053,4.479c4.795,1.541,8.733,3.2,11.814,4.979c7.495,4.319,11.243,10.274,11.243,17.865
		c0,6.066-2.286,10.831-6.86,14.292c-4.573,3.462-10.846,5.193-18.817,5.193c-5.622,0-10.712-1.008-15.27-3.025
		c-4.558-2.017-7.987-4.78-10.29-8.29c-2.303-3.509-3.454-7.551-3.454-12.124h16.77c0,3.716,0.96,6.455,2.883,8.218
		c1.921,1.763,5.041,2.645,9.361,2.645c2.763,0,4.946-0.596,6.55-1.787C391.616,429.472,392.419,427.797,392.419,425.637z"/>
</g>
</svg>
