<?xml version="1.0" encoding="utf-8"?>
<!-- Generator: Adobe Illustrator 16.0.0, SVG Export Plug-In . SVG Version: 6.00 Build 0)  -->
<!DOCTYPE svg PUBLIC "-//W3C//DTD SVG 1.1//EN" "http://www.w3.org/Graphics/SVG/1.1/DTD/svg11.dtd">
<svg version="1.1" id="Layer_1" xmlns="http://www.w3.org/2000/svg" xmlns:xlink="http://www.w3.org/1999/xlink" x="0px" y="0px"
	 width="528px" height="527px" viewBox="0 0 528 527" enable-background="new 0 0 528 527" xml:space="preserve">
<g>
	<path fill="#FFFFFF" d="M173.558,387.619h-20.819v56.454h-16.722v-56.454h-20.438v-12.91h57.979V387.619z"/>
	<path fill="#FFFFFF" d="M214.291,431.115h-22.915l-4.002,12.958h-17.865l25.44-69.364h15.721l25.631,69.364H218.34L214.291,431.115
		z M195.377,418.204h14.911l-7.479-24.06L195.377,418.204z"/>
	<path fill="#FFFFFF" d="M258.072,431.21h29.108v12.863h-45.831v-69.364h16.722L258.072,431.21L258.072,431.21z"/>
	<path fill="#FFFFFF" d="M317.813,418.252l-6.858,7.527v18.294H294.23v-69.364h16.723v30.585l5.813-8.813l14.959-21.771H352.4
		l-23.438,30.68l23.438,38.687h-19.818L317.813,418.252z"/>
	<path fill="#FFFFFF" d="M392.419,425.637c0-2.443-0.865-4.352-2.597-5.717c-1.732-1.365-4.771-2.779-9.123-4.24
		c-4.354-1.461-7.908-2.874-10.671-4.238c-8.989-4.414-13.482-10.481-13.482-18.199c0-3.844,1.119-7.232,3.358-10.172
		c2.237-2.938,5.407-5.225,9.504-6.859c4.098-1.635,8.702-2.453,13.814-2.453c4.985,0,9.456,0.891,13.41,2.668
		c3.954,1.779,7.027,4.313,9.221,7.6c2.19,3.287,3.285,7.043,3.285,11.268h-16.674c0-2.826-0.866-5.018-2.597-6.574
		c-1.731-1.556-4.073-2.334-7.027-2.334c-2.983,0-5.344,0.659-7.074,1.977c-1.729,1.318-2.597,2.994-2.597,5.027
		c0,1.778,0.953,3.392,2.858,4.834c1.905,1.446,5.257,2.938,10.053,4.479c4.795,1.541,8.733,3.2,11.814,4.979
		c7.493,4.319,11.241,10.274,11.241,17.865c0,6.066-2.284,10.831-6.858,14.292c-4.573,3.462-10.848,5.193-18.817,5.193
		c-5.622,0-10.712-1.01-15.27-3.025c-4.56-2.017-7.987-4.78-10.29-8.29c-2.305-3.509-3.454-7.551-3.454-12.124h16.77
		c0,3.716,0.96,6.455,2.885,8.218c1.921,1.765,5.039,2.646,9.359,2.646c2.763,0,4.946-0.596,6.55-1.787
		C391.616,429.472,392.419,427.797,392.419,425.637z"/>
</g>
<g>
	<path fill="#FFFFFF" d="M123.189,297.339h-15.342v41.726h-10.32v-41.726H82.392v-8.358h40.797V297.339z"/>
	<path fill="#FFFFFF" d="M159.205,317.357h-19.814v13.416h23.254v8.291h-33.574v-50.086h33.505v8.359h-23.185v11.938h19.814V317.357
		z"/>
	<path fill="#FFFFFF" d="M168.698,339.064v-50.086h15.411c4.403,0,8.341,0.992,11.816,2.977c3.474,1.982,6.186,4.805,8.135,8.462
		c1.949,3.658,2.924,7.813,2.924,12.47v2.305c0,4.656-0.958,8.795-2.872,12.418c-1.915,3.625-4.616,6.434-8.101,8.429
		c-3.486,1.995-7.419,3.005-11.799,3.026H168.698L168.698,339.064z M179.018,297.339v33.437h4.988c4.036,0,7.121-1.318,9.253-3.957
		c2.133-2.637,3.222-6.408,3.268-11.316v-2.648c0-5.09-1.055-8.949-3.165-11.574c-2.11-2.627-5.194-3.938-9.253-3.938h-5.091
		V297.339z"/>
	<path fill="#FFFFFF" d="M233.162,321.624h-19.367v-8.015h19.367V321.624z"/>
	<path fill="#FFFFFF" d="M267.768,325.924c0-1.947-0.688-3.445-2.063-4.488s-3.853-2.145-7.43-3.303
		c-3.577-1.158-6.41-2.299-8.496-3.423c-5.688-3.073-8.531-7.212-8.531-12.418c0-2.706,0.762-5.119,2.288-7.241
		c1.525-2.121,3.715-3.777,6.57-4.971c2.855-1.191,6.06-1.788,9.614-1.788c3.578,0,6.765,0.647,9.563,1.942
		c2.797,1.297,4.971,3.125,6.519,5.486c1.549,2.362,2.321,5.047,2.321,8.051h-10.319c0-2.293-0.723-4.076-2.166-5.351
		c-1.446-1.272-3.476-1.909-6.09-1.909c-2.523,0-4.483,0.533-5.882,1.6c-1.399,1.068-2.098,2.473-2.098,4.215
		c0,1.629,0.82,2.992,2.459,4.094c1.639,1.102,4.053,2.133,7.241,3.096c5.872,1.768,10.148,3.957,12.831,6.57
		c2.685,2.614,4.024,5.871,4.024,9.77c0,4.334-1.64,7.734-4.919,10.199s-7.694,3.697-13.243,3.697
		c-3.853,0-7.362-0.705-10.526-2.115s-5.579-3.342-7.241-5.796c-1.663-2.454-2.494-5.298-2.494-8.53h10.354
		c0,5.526,3.302,8.289,9.907,8.289c2.453,0,4.368-0.498,5.744-1.496S267.768,327.713,267.768,325.924z"/>
	<path fill="#FFFFFF" d="M322.806,297.339h-15.342v41.726h-10.319v-41.726h-15.136v-8.358h40.797V297.339z"/>
	<path fill="#FFFFFF" d="M346.507,311.545l10.423-22.564h11.283l-16.443,31.922v18.162h-10.49v-18.162l-16.443-31.922h11.317
		L346.507,311.545z"/>
	<path fill="#FFFFFF" d="M383.107,330.773h21.911v8.291h-32.231v-50.086h10.32V330.773z"/>
	<path fill="#FFFFFF" d="M441.069,317.357h-19.813v13.416h23.253v8.291h-33.573v-50.086h33.506v8.359h-23.186v11.938h19.813V317.357
		z"/>
</g>
<g>
	<path fill="#FFFFFF" d="M248.352,246.427H127.54v-26.16l55.649-58.503c13.713-15.616,20.571-28.022,20.571-37.219
		c0-7.45-1.626-13.119-4.875-17.004c-3.251-3.883-7.967-5.827-14.15-5.827c-6.105,0-11.059,2.598-14.864,7.789
		c-3.805,5.193-5.708,11.673-5.708,19.441h-40.191c0-10.622,2.655-20.432,7.967-29.43c5.31-8.996,12.683-16.032,22.117-21.106
		c9.433-5.072,19.977-7.61,31.63-7.61c18.708,0,33.116,4.322,43.224,12.961c10.107,8.641,15.161,21.047,15.161,37.218
		c0,6.819-1.269,13.458-3.805,19.917c-2.538,6.462-6.48,13.24-11.832,20.333c-5.351,7.095-13.972,16.588-25.862,28.479
		l-22.355,25.803h68.135V246.427z"/>
	<path fill="#FFFFFF" d="M374.396,178.768h17.599v30.917h-17.599v36.743h-40.072v-36.743h-66.946l-2.378-24.496l69.324-111.537
		v-0.357h40.072V178.768z M303.169,178.768h31.154v-53.271l-2.497,4.043L303.169,178.768z"/>
</g>
</svg>
