<?xml version="1.0" encoding="utf-8"?>
<!-- Generator: Adobe Illustrator 16.0.0, SVG Export Plug-In . SVG Version: 6.00 Build 0)  -->
<!DOCTYPE svg PUBLIC "-//W3C//DTD SVG 1.1//EN" "http://www.w3.org/Graphics/SVG/1.1/DTD/svg11.dtd">
<svg version="1.1" id="Layer_1" xmlns="http://www.w3.org/2000/svg" xmlns:xlink="http://www.w3.org/1999/xlink" x="0px" y="0px"
	 width="528px" height="527px" viewBox="0 0 528 527" enable-background="new 0 0 528 527" xml:space="preserve">
<g>
	<path fill="#FFFFFF" d="M173.558,387.619h-20.819v56.454h-16.722v-56.454h-20.438v-12.91h57.979V387.619z"/>
	<path fill="#FFFFFF" d="M214.291,431.115h-22.915l-4.002,12.958h-17.865l25.44-69.364h15.721l25.631,69.364H218.34L214.291,431.115
		z M195.377,418.204h14.911l-7.479-24.061L195.377,418.204z"/>
	<path fill="#FFFFFF" d="M258.072,431.21h29.108v12.863h-45.831v-69.364h16.722L258.072,431.21L258.072,431.21z"/>
	<path fill="#FFFFFF" d="M317.813,418.252l-6.857,7.527v18.294H294.23v-69.364h16.723v30.585l5.813-8.813l14.959-21.771H352.4
		l-23.438,30.68l23.438,38.688h-19.818L317.813,418.252z"/>
	<path fill="#FFFFFF" d="M392.419,425.637c0-2.442-0.864-4.352-2.597-5.717s-4.771-2.779-9.123-4.24
		c-4.354-1.461-7.908-2.874-10.672-4.237c-8.988-4.414-13.481-10.481-13.481-18.199c0-3.844,1.119-7.232,3.358-10.172
		c2.236-2.938,5.406-5.226,9.504-6.859c4.098-1.635,8.701-2.453,13.814-2.453c4.984,0,9.455,0.892,13.409,2.668
		c3.954,1.779,7.027,4.313,9.222,7.601c2.189,3.287,3.284,7.043,3.284,11.268h-16.674c0-2.826-0.866-5.018-2.597-6.574
		c-1.73-1.556-4.073-2.334-7.027-2.334c-2.982,0-5.344,0.659-7.074,1.978c-1.729,1.317-2.597,2.994-2.597,5.026
		c0,1.778,0.953,3.393,2.858,4.834c1.904,1.446,5.257,2.938,10.053,4.479c4.795,1.541,8.732,3.2,11.814,4.979
		c7.492,4.319,11.24,10.274,11.24,17.865c0,6.066-2.283,10.831-6.857,14.292c-4.573,3.462-10.848,5.193-18.817,5.193
		c-5.622,0-10.712-1.01-15.271-3.025c-4.56-2.017-7.986-4.78-10.289-8.29c-2.305-3.509-3.454-7.551-3.454-12.124h16.77
		c0,3.716,0.96,6.455,2.886,8.218c1.92,1.766,5.039,2.646,9.358,2.646c2.763,0,4.946-0.596,6.55-1.787
		C391.616,429.472,392.419,427.797,392.419,425.637z"/>
</g>
<g>
	<path fill="#FFFFFF" d="M123.189,297.339h-15.342v41.727h-10.32v-41.727H82.392v-8.358h40.797V297.339z"/>
	<path fill="#FFFFFF" d="M159.205,317.357h-19.814v13.416h23.254v8.291h-33.574v-50.086h33.505v8.358h-23.185v11.938h19.814V317.357
		z"/>
	<path fill="#FFFFFF" d="M168.698,339.064v-50.086h15.411c4.403,0,8.341,0.992,11.816,2.977c3.474,1.982,6.186,4.805,8.135,8.462
		c1.949,3.658,2.924,7.813,2.924,12.47v2.306c0,4.655-0.958,8.795-2.872,12.418c-1.915,3.625-4.616,6.434-8.101,8.429
		c-3.486,1.995-7.419,3.005-11.799,3.026L168.698,339.064L168.698,339.064z M179.018,297.339v33.438h4.988
		c4.036,0,7.121-1.318,9.253-3.957c2.133-2.638,3.222-6.408,3.268-11.316v-2.647c0-5.091-1.055-8.949-3.165-11.574
		c-2.11-2.627-5.194-3.938-9.253-3.938h-5.091V297.339L179.018,297.339z"/>
	<path fill="#FFFFFF" d="M233.162,321.624h-19.367v-8.015h19.367V321.624z"/>
	<path fill="#FFFFFF" d="M267.768,325.924c0-1.947-0.688-3.445-2.063-4.488s-3.853-2.145-7.43-3.303
		c-3.577-1.158-6.41-2.299-8.496-3.423c-5.688-3.073-8.531-7.212-8.531-12.418c0-2.706,0.762-5.119,2.288-7.241
		c1.525-2.121,3.715-3.777,6.57-4.971c2.855-1.191,6.06-1.788,9.614-1.788c3.578,0,6.764,0.647,9.563,1.942
		c2.797,1.297,4.971,3.125,6.52,5.485c1.549,2.362,2.32,5.048,2.32,8.052h-10.318c0-2.293-0.724-4.076-2.166-5.352
		c-1.447-1.271-3.477-1.909-6.091-1.909c-2.523,0-4.483,0.533-5.882,1.601s-2.098,2.473-2.098,4.215c0,1.629,0.82,2.992,2.459,4.094
		c1.639,1.102,4.053,2.133,7.241,3.096c5.873,1.769,10.148,3.957,12.832,6.57c2.685,2.614,4.023,5.871,4.023,9.77
		c0,4.335-1.641,7.734-4.919,10.199c-3.279,2.465-7.694,3.697-13.243,3.697c-3.853,0-7.362-0.705-10.526-2.115
		s-5.579-3.342-7.241-5.796c-1.663-2.454-2.494-5.298-2.494-8.53h10.354c0,5.526,3.302,8.289,9.907,8.289
		c2.453,0,4.368-0.498,5.744-1.496S267.768,327.713,267.768,325.924z"/>
	<path fill="#FFFFFF" d="M322.807,297.339h-15.343v41.727h-10.319v-41.727h-15.136v-8.358h40.798V297.339z"/>
	<path fill="#FFFFFF" d="M346.507,311.545l10.423-22.564h11.283l-16.443,31.923v18.162h-10.49v-18.162l-16.442-31.923h11.317
		L346.507,311.545z"/>
	<path fill="#FFFFFF" d="M383.107,330.773h21.91v8.291h-32.23v-50.086h10.32V330.773L383.107,330.773z"/>
	<path fill="#FFFFFF" d="M441.069,317.357h-19.813v13.416h23.253v8.291h-33.573v-50.086h33.507v8.358h-23.187v11.938h19.813V317.357
		z"/>
</g>
<g>
	<path fill="#FFFDFE" d="M249.041,246.521H128.094v-26.189l55.711-58.569c13.729-15.632,20.594-28.051,20.594-37.259
		c0-7.458-1.628-13.135-4.88-17.024c-3.255-3.887-7.977-5.831-14.167-5.831c-6.112,0-11.071,2.601-14.88,7.796
		c-3.81,5.199-5.714,11.687-5.714,19.463h-40.236c0-10.634,2.658-20.454,7.976-29.462c5.316-9.006,12.697-16.051,22.142-21.131
		c9.444-5.078,20-7.619,31.666-7.619c18.729,0,33.153,4.327,43.272,12.976c10.118,8.652,15.178,21.071,15.178,37.26
		c0,6.827-1.271,13.471-3.809,19.941c-2.542,6.468-6.489,13.253-11.845,20.355c-5.357,7.104-13.988,16.606-25.892,28.511
		l-22.38,25.832h68.211V246.521L249.041,246.521z"/>
	<path fill="#FFFDFE" d="M271.658,161.855l10.596-88.66h101.304v31.189H314.87l-3.928,34.431c2.856-1.675,6.605-3.147,11.249-4.424
		c4.642-1.277,9.185-1.913,13.63-1.913c17.221,0,30.454,5.098,39.7,15.296c9.247,10.199,13.868,24.505,13.868,42.916
		c0,11.11-2.48,21.172-7.439,30.177c-4.96,9.01-11.926,15.933-20.892,20.774c-8.969,4.842-19.564,7.26-31.785,7.26
		c-10.873,0-21.07-2.242-30.593-6.722c-9.521-4.476-16.984-10.622-22.38-18.436c-5.398-7.811-8.055-16.631-7.978-26.463h40.239
		c0.394,6.333,2.419,11.365,6.069,15.087c3.65,3.723,8.453,5.583,14.404,5.583c13.49,0,20.236-9.98,20.236-29.938
		c0-18.453-8.253-27.68-24.76-27.68c-9.365,0-16.352,3.01-20.951,9.029L271.658,161.855z"/>
</g>
</svg>
