<?xml version="1.0" encoding="utf-8"?>
<!-- Generator: Adobe Illustrator 16.0.0, SVG Export Plug-In . SVG Version: 6.00 Build 0)  -->
<!DOCTYPE svg PUBLIC "-//W3C//DTD SVG 1.1//EN" "http://www.w3.org/Graphics/SVG/1.1/DTD/svg11.dtd">
<svg version="1.1" id="Layer_1" xmlns="http://www.w3.org/2000/svg" xmlns:xlink="http://www.w3.org/1999/xlink" x="0px" y="0px"
	 width="528px" height="527px" viewBox="0 0 528 527" enable-background="new 0 0 528 527" xml:space="preserve">
<g>
	<path fill="#FFFFFF" d="M210.057,245.39h-39.654V119.153l-38.951,11.38v-30.034l74.968-25.928h3.637V245.39z"/>
	<path fill="#FFFFFF" d="M357.061,72.107v31.09h-1.76c-14.783,0-26.926,3.54-36.428,10.618c-9.504,7.08-15.352,16.915-17.541,29.506
		c8.918-8.759,20.18-13.14,33.789-13.14c14.783,0,26.553,5.397,35.313,16.19c8.759,10.793,13.14,24.951,13.14,42.47
		c0,10.873-2.563,20.845-7.685,29.917c-5.125,9.074-12.28,16.172-21.471,21.294c-9.191,5.124-19.377,7.684-30.561,7.684
		c-12.125,0-22.958-2.757-32.499-8.271c-9.545-5.514-16.975-13.393-22.291-23.64c-5.319-10.245-8.057-22.056-8.212-35.431v-15.838
		c0-17.598,3.772-33.416,11.32-47.456c7.549-14.038,18.322-25.048,32.322-33.026c14-7.978,29.525-11.967,46.576-11.967H357.061z
		 M321.395,160.45c-5.239,0-9.618,1.214-13.141,3.637c-3.52,2.425-6.141,5.396-7.859,8.917v11.849
		c0,21.587,7.47,32.381,22.408,32.381c6.021,0,11.047-2.699,15.076-8.095c4.027-5.397,6.041-12.161,6.041-20.297
		c0-8.368-2.053-15.193-6.158-20.472C333.654,163.09,328.199,160.45,321.395,160.45z"/>
</g>
<g>
	<path fill="#FFFFFF" d="M173.558,387.619h-20.819v56.454h-16.722v-56.454h-20.438v-12.91h57.979V387.619z"/>
	<path fill="#FFFFFF" d="M214.291,431.115h-22.915l-4.002,12.958h-17.865l25.44-69.364h15.721l25.631,69.364H218.34L214.291,431.115
		z M195.377,418.204h14.911l-7.479-24.06L195.377,418.204z"/>
	<path fill="#FFFFFF" d="M258.072,431.21h29.108v12.863h-45.831v-69.364h16.722L258.072,431.21L258.072,431.21z"/>
	<path fill="#FFFFFF" d="M317.813,418.252l-6.859,7.527v18.294H294.23v-69.364h16.723v30.585l5.813-8.813l14.959-21.771H352.4
		l-23.438,30.68l23.438,38.686h-19.818L317.813,418.252z"/>
	<path fill="#FFFFFF" d="M392.419,425.637c0-2.444-0.865-4.352-2.597-5.717c-1.732-1.365-4.771-2.779-9.123-4.24
		c-4.353-1.461-7.908-2.874-10.671-4.239c-8.989-4.414-13.482-10.481-13.482-18.199c0-3.843,1.119-7.232,3.358-10.171
		c2.238-2.938,5.407-5.225,9.504-6.86c4.098-1.635,8.702-2.453,13.815-2.453c4.985,0,9.456,0.89,13.41,2.668
		c3.954,1.779,7.027,4.312,9.22,7.599c2.191,3.287,3.286,7.043,3.286,11.268h-16.674c0-2.826-0.866-5.018-2.597-6.574
		c-1.731-1.556-4.073-2.334-7.027-2.334c-2.984,0-5.344,0.659-7.074,1.977c-1.73,1.318-2.597,2.994-2.597,5.026
		c0,1.779,0.953,3.392,2.858,4.835c1.906,1.446,5.257,2.938,10.053,4.479c4.795,1.541,8.733,3.2,11.814,4.979
		c7.494,4.319,11.242,10.274,11.242,17.865c0,6.066-2.285,10.831-6.859,14.292c-4.573,3.462-10.847,5.193-18.817,5.193
		c-5.622,0-10.712-1.009-15.27-3.025c-4.559-2.017-7.987-4.78-10.29-8.29c-2.304-3.509-3.454-7.551-3.454-12.124h16.77
		c0,3.716,0.96,6.455,2.884,8.218c1.921,1.764,5.04,2.646,9.36,2.646c2.763,0,4.946-0.596,6.55-1.787
		C391.616,429.472,392.419,427.797,392.419,425.637z"/>
</g>
<g>
	<path fill="#FFFFFF" d="M123.189,297.339h-15.342v41.726H97.527v-41.726H82.392v-8.359h40.797V297.339z"/>
	<path fill="#FFFFFF" d="M159.205,317.358h-19.814v13.416h23.254v8.29h-33.574v-50.085h33.505v8.359h-23.185v11.937h19.814V317.358z
		"/>
	<path fill="#FFFFFF" d="M168.698,339.064v-50.085h15.411c4.403,0,8.341,0.992,11.816,2.976c3.474,1.983,6.186,4.805,8.135,8.462
		c1.949,3.658,2.924,7.814,2.924,12.47v2.305c0,4.656-0.958,8.795-2.872,12.418c-1.915,3.624-4.616,6.433-8.101,8.428
		c-3.486,1.995-7.419,3.005-11.799,3.027H168.698z M179.018,297.339v33.436h4.988c4.036,0,7.121-1.318,9.253-3.956
		c2.133-2.637,3.222-6.409,3.268-11.317v-2.648c0-5.091-1.055-8.949-3.165-11.575s-5.194-3.938-9.253-3.938H179.018z"/>
	<path fill="#FFFFFF" d="M233.162,321.624h-19.367v-8.015h19.367V321.624z"/>
	<path fill="#FFFFFF" d="M267.768,325.924c0-1.948-0.688-3.445-2.064-4.489c-1.376-1.043-3.853-2.144-7.43-3.302
		c-3.577-1.158-6.41-2.299-8.496-3.423c-5.688-3.073-8.531-7.212-8.531-12.418c0-2.706,0.762-5.119,2.288-7.241
		c1.525-2.121,3.715-3.777,6.57-4.971c2.855-1.191,6.06-1.788,9.614-1.788c3.578,0,6.765,0.647,9.563,1.943
		c2.797,1.296,4.971,3.125,6.519,5.486c1.548,2.362,2.321,5.046,2.321,8.05h-10.319c0-2.293-0.723-4.076-2.167-5.35
		c-1.445-1.272-3.475-1.909-6.089-1.909c-2.523,0-4.483,0.533-5.882,1.6s-2.098,2.472-2.098,4.214c0,1.629,0.82,2.993,2.459,4.094
		c1.639,1.101,4.053,2.133,7.241,3.096c5.871,1.767,10.148,3.956,12.831,6.57c2.684,2.614,4.024,5.871,4.024,9.77
		c0,4.334-1.64,7.734-4.919,10.199s-7.694,3.697-13.243,3.697c-3.853,0-7.362-0.705-10.526-2.115s-5.579-3.342-7.241-5.796
		c-1.663-2.454-2.494-5.298-2.494-8.531h10.354c0,5.527,3.302,8.29,9.907,8.29c2.453,0,4.368-0.498,5.744-1.496
		S267.768,327.713,267.768,325.924z"/>
	<path fill="#FFFFFF" d="M322.806,297.339h-15.342v41.726h-10.319v-41.726h-15.136v-8.359h40.797V297.339z"/>
	<path fill="#FFFFFF" d="M346.507,311.545l10.423-22.565h11.283l-16.443,31.922v18.163h-10.491v-18.163l-16.443-31.922h11.317
		L346.507,311.545z"/>
	<path fill="#FFFFFF" d="M383.107,330.774h21.912v8.29h-32.232v-50.085h10.32V330.774z"/>
	<path fill="#FFFFFF" d="M441.069,317.358h-19.813v13.416h23.253v8.29h-33.573v-50.085h33.505v8.359h-23.185v11.937h19.813V317.358z
		"/>
</g>
</svg>
