<?xml version="1.0" encoding="utf-8"?>
<!-- Generator: Adobe Illustrator 16.0.0, SVG Export Plug-In . SVG Version: 6.00 Build 0)  -->
<!DOCTYPE svg PUBLIC "-//W3C//DTD SVG 1.1//EN" "http://www.w3.org/Graphics/SVG/1.1/DTD/svg11.dtd">
<svg version="1.1" id="Layer_1" xmlns="http://www.w3.org/2000/svg" xmlns:xlink="http://www.w3.org/1999/xlink" x="0px" y="0px"
	 width="528px" height="527px" viewBox="0 0 528 527" enable-background="new 0 0 528 527" xml:space="preserve">
<rect opacity="0.6" fill-rule="evenodd" clip-rule="evenodd" fill="#F58E92" width="528" height="527"/>
<path opacity="0.7" fill-rule="evenodd" clip-rule="evenodd" fill="#E31E26" d="M274.457,97.04
	c24.091,12.619,73.341,38.417,148.165,77.609c-74.369,79.819-123.165,173.034-180.331,283.244
	c-40.88-42.792-90.131-68.591-133.262-119.688C151.705,270.29,200.501,177.076,274.457,97.04z"/>
<g>
	<path fill="#FFFFFF" d="M122.473,244.052h-22.03v59.917H85.624v-59.917H63.89v-12.003h58.583V244.052z"/>
	<path fill="#FFFFFF" d="M146.677,303.969h-14.819v-71.92h14.819V303.969z"/>
	<path fill="#FFFFFF" d="M216.868,280.012c-0.56,7.739-3.417,13.831-8.57,18.276c-5.154,4.445-11.946,6.668-20.376,6.668
		c-9.22,0-16.473-3.104-21.759-9.311c-5.285-6.207-7.928-14.728-7.928-25.563v-4.396c0-6.916,1.218-13.008,3.655-18.276
		c2.437-5.269,5.919-9.311,10.447-12.126c4.527-2.816,9.788-4.224,15.782-4.224c8.298,0,14.983,2.223,20.055,6.668
		c5.071,4.446,8.002,10.687,8.792,18.721h-14.819c-0.363-4.644-1.655-8.01-3.877-10.102c-2.223-2.091-5.606-3.137-10.151-3.137
		c-4.939,0-8.637,1.771-11.089,5.31c-2.453,3.54-3.713,9.032-3.779,16.474v5.433c0,7.772,1.177,13.453,3.532,17.042
		c2.354,3.59,6.067,5.384,11.139,5.384c4.577,0,7.994-1.045,10.25-3.137c2.255-2.091,3.548-5.326,3.878-9.706H216.868z"/>
	<path fill="#FFFFFF" d="M249.123,275.122l-7.706,8.298v20.549h-14.819v-71.92h14.819v32.601l6.52-8.94l18.326-23.661h18.227
		l-25.538,31.959l26.279,39.961h-17.634L249.123,275.122z"/>
	<path fill="#FFFFFF" d="M334.083,272.8h-28.452v19.264h33.391v11.905h-48.21v-71.92h48.111v12.003h-33.292v17.14h28.452V272.8z"/>
	<path fill="#FFFFFF" d="M402.842,244.052h-22.031v59.917h-14.818v-59.917h-21.734v-12.003h58.583V244.052z"/>
	<path fill="#FFFFFF" d="M447.792,285.1c0-2.799-0.988-4.947-2.964-6.446c-1.976-1.499-5.532-3.079-10.669-4.742
		c-5.137-1.662-9.205-3.301-12.201-4.915c-8.167-4.413-12.25-10.356-12.25-17.832c0-3.885,1.095-7.352,3.285-10.397
		c2.189-3.046,5.334-5.425,9.434-7.138c4.1-1.712,8.702-2.569,13.806-2.569c5.137,0,9.714,0.931,13.732,2.791
		c4.018,1.86,7.138,4.487,9.361,7.878c2.223,3.392,3.334,7.245,3.334,11.559h-14.819c0-3.292-1.037-5.854-3.112-7.681
		s-4.989-2.741-8.743-2.741c-3.623,0-6.438,0.766-8.446,2.297c-2.009,1.531-3.013,3.549-3.013,6.051
		c0,2.339,1.177,4.297,3.532,5.878c2.354,1.581,5.82,3.063,10.398,4.445c8.429,2.536,14.571,5.681,18.424,9.435
		c3.853,3.754,5.779,8.43,5.779,14.028c0,6.224-2.354,11.106-7.063,14.646c-4.709,3.54-11.048,5.31-19.018,5.31
		c-5.532,0-10.57-1.013-15.115-3.038c-4.544-2.025-8.01-4.799-10.398-8.323c-2.388-3.523-3.581-7.606-3.581-12.25h14.868
		c0,7.937,4.742,11.904,14.226,11.904c3.524,0,6.273-0.716,8.249-2.148C446.804,289.669,447.792,287.668,447.792,285.1z"/>
</g>
</svg>
