<?xml version="1.0" encoding="utf-8"?>
<!-- Generator: Adobe Illustrator 16.0.0, SVG Export Plug-In . SVG Version: 6.00 Build 0)  -->
<!DOCTYPE svg PUBLIC "-//W3C//DTD SVG 1.1//EN" "http://www.w3.org/Graphics/SVG/1.1/DTD/svg11.dtd">
<svg version="1.1" id="Layer_1" xmlns="http://www.w3.org/2000/svg" xmlns:xlink="http://www.w3.org/1999/xlink" x="0px" y="0px"
	 width="528px" height="527px" viewBox="0 0 528 527" enable-background="new 0 0 528 527" xml:space="preserve">
<image display="none" overflow="visible" width="1200" height="656" xlink:href="mockup.jpg"  transform="matrix(4.8924 0 0 4.8924 -4822.3242 -1739.6914)">
</image>
<g>
	<path fill="#FFFDFE" d="M189.774,89.864c0,5.077-1.257,9.554-3.771,13.434c-2.514,3.879-5.975,6.993-10.38,9.338
		c4.98,2.442,8.931,5.783,11.853,10.021c2.921,4.238,4.382,9.255,4.382,15.049c0,9.339-3.221,16.714-9.662,22.125
		c-6.441,5.412-15.313,8.117-26.615,8.117c-11.35,0-20.306-2.717-26.867-8.153c-6.562-5.435-9.841-12.798-9.841-22.089
		c0-5.603,1.437-10.56,4.31-14.87s6.943-7.71,12.212-10.201c-4.454-2.346-7.95-5.459-10.488-9.338
		c-2.539-3.879-3.807-8.356-3.807-13.434c0-9.098,3.089-16.282,9.267-21.55c6.178-5.268,14.511-7.902,24.999-7.902
		c10.583,0,18.965,2.634,25.143,7.902C186.686,73.583,189.774,80.766,189.774,89.864z M167.577,135.767
		c0-4.31-1.113-7.625-3.34-9.949c-2.227-2.322-5.161-3.484-8.8-3.484c-3.64,0-6.585,1.162-8.835,3.484
		c-2.251,2.324-3.376,5.639-3.376,9.949c0,4.167,1.137,7.46,3.412,9.877c2.274,2.419,5.255,3.628,8.944,3.628
		c3.592,0,6.489-1.197,8.692-3.592C166.475,143.286,167.577,139.982,167.577,135.767z M155.365,79.089
		c-3.257,0-5.735,1.066-7.435,3.196c-1.7,2.132-2.55,5.089-2.55,8.872c0,3.735,0.862,6.752,2.586,9.051
		c1.724,2.298,4.262,3.448,7.615,3.448c3.304,0,5.783-1.149,7.435-3.448c1.652-2.299,2.479-5.316,2.479-9.051
		c0-3.736-0.851-6.681-2.55-8.836C161.244,80.167,158.717,79.089,155.365,79.089z"/>
	<path fill="#FFFDFE" d="M219.874,85.698c3.831,0,7.015,1.138,9.554,3.412c2.538,2.275,3.807,5.185,3.807,8.728
		c0,3.544-1.27,6.454-3.807,8.728c-2.539,2.275-5.723,3.412-9.554,3.412c-3.879,0-7.076-1.149-9.59-3.448s-3.771-5.196-3.771-8.692
		c0-3.496,1.257-6.394,3.771-8.692S215.995,85.698,219.874,85.698z M219.874,143.022c3.831,0,7.015,1.138,9.554,3.412
		c2.538,2.275,3.807,5.185,3.807,8.728c0,3.545-1.27,6.454-3.807,8.728c-2.539,2.275-5.723,3.412-9.554,3.412
		c-3.879,0-7.076-1.149-9.59-3.448c-2.514-2.299-3.771-5.196-3.771-8.692c0-3.495,1.257-6.393,3.771-8.692
		S215.995,143.022,219.874,143.022z"/>
	<path fill="#FFFDFE" d="M270.732,104.088h11.422c9.052,0,13.577-4.429,13.577-13.29c0-3.448-1.077-6.261-3.232-8.44
		c-2.155-2.179-5.197-3.269-9.123-3.269c-3.209,0-5.998,0.934-8.369,2.801c-2.37,1.868-3.556,4.191-3.556,6.968h-24.208
		c0-5.507,1.532-10.416,4.598-14.727c3.064-4.31,7.315-7.674,12.75-10.093c5.435-2.417,11.409-3.627,17.923-3.627
		c11.638,0,20.784,2.658,27.441,7.974c6.656,5.316,9.984,12.62,9.984,21.91c0,4.502-1.377,8.753-4.129,12.751
		c-2.756,3.999-6.766,7.244-12.033,9.733c5.555,2.012,9.914,5.064,13.074,9.159s4.74,9.159,4.74,15.193
		c0,9.339-3.592,16.81-10.775,22.413c-7.184,5.604-16.618,8.405-28.303,8.405c-6.849,0-13.206-1.305-19.072-3.915
		c-5.867-2.609-10.309-6.225-13.326-10.847c-3.017-4.621-4.525-9.877-4.525-15.768h24.352c0,3.209,1.293,5.987,3.879,8.333
		c2.586,2.347,5.771,3.52,9.555,3.52c4.262,0,7.661-1.186,10.2-3.556c2.538-2.371,3.808-5.399,3.808-9.087
		c0-5.268-1.318-9.003-3.951-11.207c-2.635-2.202-6.274-3.304-10.919-3.304h-11.781V104.088z"/>
	<path fill="#FFFDFE" d="M406.43,123.771c0,14.128-3.173,25.023-9.518,32.685c-6.347,7.663-15.29,11.494-26.831,11.494
		c-11.637,0-20.642-3.854-27.01-11.565c-6.37-7.71-9.554-18.581-9.554-32.613v-19.108c0-14.127,3.172-25.022,9.518-32.685
		c6.346-7.662,15.313-11.494,26.902-11.494c11.589,0,20.568,3.855,26.938,11.565c6.368,7.711,9.554,18.605,9.554,32.685V123.771z
		 M382.222,101.574c0-7.518-0.982-13.134-2.945-16.846c-1.965-3.71-5.077-5.567-9.339-5.567c-4.166,0-7.195,1.724-9.087,5.172
		c-1.893,3.448-2.909,8.668-3.053,15.66v26.723c0,7.807,0.98,13.518,2.945,17.133c1.963,3.617,5.075,5.424,9.338,5.424
		c4.118,0,7.159-1.76,9.123-5.28c1.963-3.52,2.969-9.039,3.018-16.558V101.574z"/>
</g>
<g>
	<path fill="#FFFDFE" d="M189.774,310.019c0,5.077-1.257,9.555-3.771,13.434s-5.975,6.992-10.38,9.339
		c4.98,2.442,8.931,5.782,11.853,10.021c2.921,4.238,4.382,9.256,4.382,15.05c0,9.338-3.221,16.714-9.662,22.125
		c-6.441,5.412-15.313,8.117-26.615,8.117c-11.35,0-20.306-2.717-26.867-8.153c-6.562-5.435-9.841-12.798-9.841-22.089
		c0-5.604,1.437-10.561,4.31-14.87c2.874-4.311,6.943-7.71,12.212-10.2c-4.454-2.347-7.95-5.46-10.488-9.339
		c-2.539-3.879-3.807-8.356-3.807-13.434c0-9.099,3.089-16.281,9.267-21.551c6.178-5.268,14.511-7.901,24.999-7.901
		c10.583,0,18.965,2.634,25.143,7.901C186.686,293.737,189.774,300.92,189.774,310.019z M167.577,355.922
		c0-4.311-1.113-7.626-3.34-9.949c-2.227-2.322-5.161-3.484-8.8-3.484c-3.64,0-6.585,1.162-8.835,3.484
		c-2.251,2.323-3.376,5.639-3.376,9.949c0,4.166,1.137,7.459,3.412,9.877c2.274,2.419,5.255,3.628,8.944,3.628
		c3.592,0,6.489-1.196,8.692-3.592C166.475,363.44,167.577,360.136,167.577,355.922z M155.365,299.243
		c-3.257,0-5.735,1.066-7.435,3.197c-1.7,2.131-2.55,5.089-2.55,8.871c0,3.735,0.862,6.753,2.586,9.052s4.262,3.448,7.615,3.448
		c3.304,0,5.783-1.149,7.435-3.448c1.652-2.299,2.479-5.316,2.479-9.052s-0.851-6.681-2.55-8.836
		C161.244,300.321,158.717,299.243,155.365,299.243z"/>
	<path fill="#FFFDFE" d="M219.874,305.853c3.831,0,7.015,1.138,9.554,3.412c2.538,2.275,3.807,5.185,3.807,8.728
		c0,3.545-1.27,6.454-3.807,8.729c-2.539,2.275-5.723,3.412-9.554,3.412c-3.879,0-7.076-1.149-9.59-3.448s-3.771-5.195-3.771-8.692
		c0-3.495,1.257-6.393,3.771-8.691S215.995,305.853,219.874,305.853z M219.874,363.177c3.831,0,7.015,1.139,9.554,3.412
		c2.538,2.275,3.807,5.185,3.807,8.729s-1.27,6.453-3.807,8.728c-2.539,2.275-5.723,3.412-9.554,3.412
		c-3.879,0-7.076-1.149-9.59-3.448s-3.771-5.195-3.771-8.691c0-3.495,1.257-6.394,3.771-8.692S215.995,363.177,219.874,363.177z"/>
	<path fill="#FFFDFE" d="M321.232,343.925c0,14.128-3.172,25.023-9.518,32.686c-6.347,7.662-15.29,11.493-26.831,11.493
		c-11.637,0-20.641-3.854-27.009-11.565c-6.37-7.71-9.554-18.58-9.554-32.613v-19.108c0-14.126,3.172-25.021,9.518-32.685
		c6.345-7.662,15.312-11.494,26.902-11.494s20.568,3.856,26.939,11.566c6.367,7.711,9.553,18.604,9.553,32.685V343.925z
		 M297.024,321.728c0-7.518-0.982-13.133-2.945-16.845c-1.964-3.711-5.077-5.567-9.339-5.567c-4.166,0-7.195,1.724-9.087,5.172
		c-1.893,3.448-2.909,8.669-3.053,15.66v26.723c0,7.807,0.98,13.518,2.945,17.133c1.963,3.616,5.075,5.424,9.338,5.424
		c4.118,0,7.159-1.76,9.124-5.28c1.963-3.52,2.969-9.039,3.017-16.558V321.728z"/>
	<path fill="#FFFDFE" d="M406.43,343.925c0,14.128-3.173,25.023-9.518,32.686c-6.347,7.662-15.29,11.493-26.831,11.493
		c-11.637,0-20.642-3.854-27.01-11.565c-6.37-7.71-9.554-18.58-9.554-32.613v-19.108c0-14.126,3.172-25.021,9.518-32.685
		c6.346-7.662,15.313-11.494,26.902-11.494c11.589,0,20.568,3.856,26.938,11.566c6.368,7.711,9.554,18.604,9.554,32.685V343.925z
		 M382.222,321.728c0-7.518-0.982-13.133-2.945-16.845c-1.965-3.711-5.077-5.567-9.339-5.567c-4.166,0-7.195,1.724-9.087,5.172
		c-1.893,3.448-2.909,8.669-3.053,15.66v26.723c0,7.807,0.98,13.518,2.945,17.133c1.963,3.616,5.075,5.424,9.338,5.424
		c4.118,0,7.159-1.76,9.123-5.28c1.963-3.52,2.969-9.039,3.018-16.558V321.728z"/>
</g>
<g>
	<path fill="#FFFFFF" d="M158.633,246.353h-19.001l-3.612,10.837h-11.523l19.579-52.595h10.042l19.687,52.595h-11.523
		L158.633,246.353z M142.559,237.575h13.148l-6.61-19.687L142.559,237.575z"/>
	<path fill="#FFFFFF" d="M192.877,204.594l13.51,38.146l13.438-38.146h14.232v52.595h-10.873v-14.377l1.084-24.816l-14.196,39.193
		h-7.441l-14.16-39.157l1.083,24.78v14.377h-10.837v-52.595H192.877z"/>
</g>
<g>
	<path fill="#FFFFFF" d="M304.487,452.291v18.531H293.65v-52.595h20.519c3.949,0,7.423,0.723,10.422,2.167
		c2.998,1.445,5.304,3.498,6.917,6.159s2.42,5.689,2.42,9.085c0,5.153-1.764,9.218-5.292,12.191
		c-3.527,2.975-8.41,4.461-14.647,4.461H304.487z M304.487,443.514h9.682c2.865,0,5.051-0.674,6.557-2.023
		c1.504-1.349,2.257-3.274,2.257-5.779c0-2.577-0.758-4.66-2.275-6.249c-1.517-1.59-3.612-2.408-6.285-2.457h-9.935V443.514z"/>
	<path fill="#FFFFFF" d="M355.53,418.228l13.51,38.146l13.438-38.146h14.232v52.595h-10.873v-14.377l1.084-24.816l-14.196,39.193
		h-7.441l-14.16-39.157l1.084,24.78v14.377H341.37v-52.595H355.53z"/>
</g>
<line fill="none" stroke="#FFFFFF" stroke-width="10" stroke-miterlimit="10" x1="255.858" y1="223.772" x2="397.736" y2="223.772"/>
<line fill="none" stroke="#E4151A" stroke-width="10" stroke-miterlimit="10" x1="124.241" y1="447.191" x2="266.12" y2="447.191"/>
</svg>
