<?xml version="1.0" encoding="utf-8"?>
<!-- Generator: Adobe Illustrator 16.0.0, SVG Export Plug-In . SVG Version: 6.00 Build 0)  -->
<!DOCTYPE svg PUBLIC "-//W3C//DTD SVG 1.1//EN" "http://www.w3.org/Graphics/SVG/1.1/DTD/svg11.dtd">
<svg version="1.1" id="Layer_1" xmlns="http://www.w3.org/2000/svg" xmlns:xlink="http://www.w3.org/1999/xlink" x="0px" y="0px"
	 width="528px" height="527px" viewBox="0 0 528 527" enable-background="new 0 0 528 527" xml:space="preserve">
<g>
	<path fill="#FFFFFF" d="M304.486,452.291v18.531H293.65v-52.596h20.519c3.949,0,7.423,0.724,10.422,2.167
		c2.998,1.445,5.304,3.498,6.917,6.159s2.42,5.689,2.42,9.085c0,5.153-1.764,9.218-5.292,12.191
		c-3.526,2.975-8.41,4.461-14.646,4.461L304.486,452.291L304.486,452.291z M304.486,443.514h9.683c2.865,0,5.051-0.674,6.557-2.022
		c1.505-1.35,2.258-3.274,2.258-5.779c0-2.577-0.759-4.66-2.275-6.249c-1.517-1.59-3.612-2.408-6.285-2.457h-9.935v16.508H304.486z"
		/>
	<path fill="#FFFFFF" d="M355.53,418.228l13.51,38.146l13.438-38.146h14.232v52.596h-10.873v-14.377l1.084-24.816l-14.196,39.193
		h-7.44l-14.16-39.157l1.084,24.78v14.377H341.37v-52.596H355.53L355.53,418.228z"/>
</g>
<line fill="#3D3D3D" stroke="#FFFFFF" stroke-width="10" stroke-miterlimit="10" x1="255.858" y1="223.772" x2="397.736" y2="223.772"/>
<line fill="none" stroke="#E4151A" stroke-width="10" stroke-miterlimit="10" x1="124.241" y1="447.191" x2="266.12" y2="447.191"/>
<g>
	<path fill="#FFFDFE" d="M189.455,89.333c0,5.076-1.256,9.555-3.771,13.434c-2.514,3.879-5.976,6.992-10.38,9.339
		c4.98,2.442,8.932,5.782,11.854,10.021c2.92,4.238,4.381,9.256,4.381,15.051c0,9.338-3.221,16.714-9.662,22.125
		c-6.44,5.412-15.313,8.117-26.614,8.117c-11.351,0-20.306-2.717-26.867-8.153c-6.562-5.435-9.841-12.798-9.841-22.089
		c0-5.604,1.438-10.562,4.311-14.87c2.873-4.312,6.942-7.71,12.211-10.2c-4.453-2.348-7.949-5.46-10.487-9.339
		c-2.539-3.879-3.808-8.356-3.808-13.435c0-9.099,3.09-16.281,9.268-21.551c6.178-5.268,14.511-7.9,24.999-7.9
		c10.583,0,18.965,2.634,25.143,7.9C186.367,73.05,189.455,80.233,189.455,89.333z M167.259,135.235
		c0-4.311-1.113-7.626-3.341-9.949c-2.227-2.322-5.16-3.484-8.799-3.484c-3.641,0-6.586,1.162-8.836,3.484
		c-2.25,2.323-3.375,5.639-3.375,9.949c0,4.166,1.137,7.459,3.412,9.877c2.273,2.419,5.254,3.628,8.943,3.628
		c3.592,0,6.488-1.196,8.691-3.592C166.156,142.753,167.259,139.449,167.259,135.235z M155.047,78.557
		c-3.258,0-5.735,1.065-7.436,3.196c-1.699,2.131-2.55,5.09-2.55,8.871c0,3.735,0.862,6.754,2.586,9.053s4.263,3.447,7.615,3.447
		c3.304,0,5.783-1.148,7.435-3.447c1.652-2.299,2.479-5.316,2.479-9.053c0-3.735-0.851-6.681-2.55-8.836
		C160.926,79.634,158.398,78.557,155.047,78.557z"/>
	<path fill="#FFFDFE" d="M219.556,85.167c3.831,0,7.015,1.138,9.554,3.412c2.538,2.274,3.807,5.185,3.807,8.728
		c0,3.545-1.27,6.454-3.807,8.729c-2.539,2.274-5.723,3.411-9.554,3.411c-3.879,0-7.076-1.149-9.59-3.448
		c-2.515-2.299-3.771-5.194-3.771-8.691c0-3.495,1.256-6.393,3.771-8.691C212.479,86.318,215.677,85.167,219.556,85.167z
		 M219.556,142.49c3.831,0,7.015,1.14,9.554,3.412c2.538,2.274,3.807,5.185,3.807,8.729c0,3.543-1.27,6.453-3.807,8.728
		c-2.539,2.274-5.723,3.412-9.554,3.412c-3.879,0-7.076-1.149-9.59-3.448c-2.515-2.299-3.771-5.195-3.771-8.691
		c0-3.494,1.256-6.394,3.771-8.691C212.479,143.643,215.677,142.49,219.556,142.49z"/>
	<path fill="#FFFDFE" d="M320.914,123.238c0,14.128-3.173,25.023-9.519,32.687c-6.347,7.662-15.29,11.492-26.831,11.492
		c-11.637,0-20.641-3.854-27.009-11.564c-6.37-7.71-9.554-18.58-9.554-32.613v-19.107c0-14.127,3.172-25.021,9.518-32.686
		c6.346-7.662,15.313-11.494,26.902-11.494s20.568,3.856,26.938,11.566c6.367,7.711,9.554,18.604,9.554,32.686V123.238z
		 M296.705,101.042c0-7.519-0.981-13.133-2.944-16.846c-1.964-3.711-5.077-5.566-9.339-5.566c-4.166,0-7.195,1.724-9.088,5.172
		c-1.893,3.447-2.908,8.669-3.053,15.66v26.723c0,7.807,0.98,13.518,2.945,17.133c1.963,3.616,5.075,5.424,9.338,5.424
		c4.118,0,7.159-1.76,9.124-5.279c1.964-3.521,2.97-9.039,3.017-16.559V101.042z"/>
	<path fill="#FFFDFE" d="M406.111,123.238c0,14.128-3.173,25.023-9.518,32.687c-6.347,7.662-15.29,11.492-26.831,11.492
		c-11.637,0-20.642-3.854-27.01-11.564c-6.37-7.71-9.555-18.58-9.555-32.613v-19.107c0-14.127,3.173-25.021,9.519-32.686
		c6.346-7.662,15.313-11.494,26.902-11.494c11.589,0,20.567,3.856,26.938,11.566c6.368,7.711,9.554,18.604,9.554,32.686
		L406.111,123.238L406.111,123.238z M381.903,101.042c0-7.519-0.981-13.133-2.944-16.846c-1.966-3.711-5.077-5.566-9.34-5.566
		c-4.165,0-7.194,1.724-9.087,5.172c-1.893,3.447-2.908,8.669-3.053,15.66v26.723c0,7.807,0.98,13.518,2.945,17.133
		c1.963,3.616,5.075,5.424,9.338,5.424c4.118,0,7.159-1.76,9.123-5.279c1.963-3.521,2.969-9.039,3.018-16.559V101.042z"/>
</g>
<g>
	<path fill="#FFFFFF" d="M158.314,245.667h-19.001l-3.612,10.836h-11.522l19.579-52.595H153.8l19.687,52.595h-11.522
		L158.314,245.667z M142.24,236.889h13.148l-6.609-19.687L142.24,236.889z"/>
	<path fill="#FFFFFF" d="M192.559,203.907l13.51,38.146l13.438-38.146h14.231v52.596h-10.873v-14.377l1.084-24.816l-14.195,39.193
		h-7.441l-14.16-39.157l1.084,24.78v14.377h-10.838v-52.596H192.559z"/>
</g>
<line fill="none" stroke="#FFFFFF" stroke-width="10" stroke-miterlimit="10" x1="255.539" y1="223.085" x2="397.418" y2="223.085"/>
<g>
	<path fill="#FFFFFF" d="M176.789,279.743v19.104h-1.081c-9.084,0-16.545,2.176-22.385,6.524
		c-5.839,4.351-9.433,10.394-10.777,18.131c5.479-5.382,12.399-8.074,20.763-8.074c9.083,0,16.315,3.316,21.699,9.948
		c5.382,6.633,8.074,15.332,8.074,26.097c0,6.682-1.575,12.809-4.723,18.384c-3.148,5.575-7.546,9.937-13.192,13.084
		c-5.647,3.148-11.907,4.722-18.779,4.722c-7.45,0-14.106-1.693-19.97-5.082s-10.429-8.229-13.696-14.526
		c-3.27-6.295-4.951-13.553-5.047-21.771v-9.731c0-10.814,2.318-20.534,6.957-29.161c4.638-8.626,11.257-15.392,19.86-20.293
		c8.603-4.902,18.143-7.354,28.62-7.354H176.789z M154.874,334.027c-3.221,0-5.912,0.745-8.074,2.234
		c-2.163,1.49-3.773,3.316-4.83,5.479v7.281c0,13.265,4.589,19.896,13.769,19.896c3.7,0,6.788-1.658,9.264-4.975
		c2.475-3.315,3.713-7.473,3.713-12.472c0-5.142-1.262-9.335-3.784-12.579C162.407,335.649,159.055,334.027,154.874,334.027z"/>
	<path fill="#FFFFFF" d="M219.105,305.119c3.845,0,7.041,1.142,9.589,3.424c2.547,2.283,3.82,5.203,3.82,8.759
		c0,3.558-1.273,6.478-3.82,8.76c-2.548,2.283-5.744,3.424-9.589,3.424c-3.893,0-7.101-1.153-9.624-3.46
		c-2.522-2.307-3.784-5.215-3.784-8.724c0-3.507,1.262-6.416,3.784-8.723C212.005,306.272,215.213,305.119,219.105,305.119z
		 M219.105,362.647c3.845,0,7.041,1.142,9.589,3.424c2.547,2.283,3.82,5.203,3.82,8.759c0,3.558-1.273,6.478-3.82,8.76
		c-2.548,2.283-5.744,3.424-9.589,3.424c-3.893,0-7.101-1.153-9.624-3.46c-2.522-2.308-3.784-5.215-3.784-8.724
		c0-3.507,1.262-6.416,3.784-8.723C212.005,363.801,215.213,362.647,219.105,362.647z"/>
	<path fill="#FFFFFF" d="M320.826,343.327c0,14.178-3.185,25.112-9.553,32.801c-6.368,7.69-15.344,11.534-26.926,11.534
		c-11.678,0-20.714-3.868-27.105-11.606c-6.393-7.737-9.588-18.646-9.588-32.729V324.15c0-14.177,3.183-25.11,9.552-32.801
		c6.367-7.688,15.366-11.534,26.998-11.534c11.63,0,20.642,3.869,27.034,11.606c6.391,7.738,9.588,18.671,9.588,32.801V343.327z
		 M296.531,321.051c0-7.545-0.985-13.18-2.955-16.905c-1.972-3.724-5.096-5.587-9.372-5.587c-4.182,0-7.222,1.73-9.119,5.19
		c-1.899,3.461-2.92,8.699-3.064,15.716v26.817c0,7.835,0.984,13.565,2.956,17.194c1.97,3.629,5.094,5.442,9.371,5.442
		c4.133,0,7.185-1.767,9.156-5.299c1.97-3.532,2.979-9.07,3.027-16.616V321.051z"/>
	<path fill="#FFFFFF" d="M406.325,343.327c0,14.178-3.185,25.112-9.553,32.801c-6.368,7.69-15.344,11.534-26.926,11.534
		c-11.678,0-20.714-3.868-27.105-11.606c-6.393-7.737-9.588-18.646-9.588-32.729V324.15c0-14.177,3.183-25.11,9.552-32.801
		c6.367-7.688,15.366-11.534,26.998-11.534c11.63,0,20.642,3.869,27.034,11.606c6.391,7.738,9.588,18.671,9.588,32.801V343.327z
		 M382.03,321.051c0-7.545-0.985-13.18-2.955-16.905c-1.972-3.724-5.096-5.587-9.372-5.587c-4.182,0-7.222,1.73-9.119,5.19
		c-1.899,3.461-2.92,8.699-3.064,15.716v26.817c0,7.835,0.984,13.565,2.956,17.194c1.97,3.629,5.094,5.442,9.371,5.442
		c4.133,0,7.185-1.767,9.156-5.299c1.97-3.532,2.979-9.07,3.027-16.616V321.051z"/>
</g>
</svg>
