<?xml version="1.0" encoding="utf-8"?>
<!-- Generator: Adobe Illustrator 16.0.0, SVG Export Plug-In . SVG Version: 6.00 Build 0)  -->
<!DOCTYPE svg PUBLIC "-//W3C//DTD SVG 1.1//EN" "http://www.w3.org/Graphics/SVG/1.1/DTD/svg11.dtd">
<svg version="1.1" id="Layer_1" xmlns="http://www.w3.org/2000/svg" xmlns:xlink="http://www.w3.org/1999/xlink" x="0px" y="0px"
	 width="528px" height="527px" viewBox="0 0 528 527" enable-background="new 0 0 528 527" xml:space="preserve">
<g>
	<path fill="#FFFFFF" d="M189.774,310.02c0,5.076-1.257,9.555-3.771,13.434c-2.514,3.879-5.975,6.992-10.38,9.339
		c4.98,2.442,8.931,5.782,11.853,10.021c2.921,4.238,4.382,9.256,4.382,15.051c0,9.338-3.221,16.714-9.662,22.125
		c-6.441,5.412-15.313,8.117-26.615,8.117c-11.35,0-20.306-2.717-26.867-8.153c-6.562-5.435-9.841-12.798-9.841-22.089
		c0-5.604,1.437-10.562,4.31-14.87c2.874-4.312,6.943-7.71,12.212-10.2c-4.454-2.348-7.95-5.46-10.488-9.339
		c-2.539-3.879-3.807-8.356-3.807-13.435c0-9.099,3.089-16.281,9.267-21.551c6.178-5.268,14.511-7.9,24.999-7.9
		c10.583,0,18.965,2.634,25.143,7.9C186.686,293.736,189.774,300.92,189.774,310.02z M167.577,355.922
		c0-4.311-1.113-7.626-3.34-9.949c-2.227-2.322-5.161-3.484-8.8-3.484c-3.64,0-6.585,1.162-8.835,3.484
		c-2.251,2.323-3.376,5.639-3.376,9.949c0,4.166,1.137,7.459,3.412,9.877c2.274,2.419,5.255,3.628,8.944,3.628
		c3.592,0,6.489-1.196,8.692-3.592C166.475,363.439,167.577,360.136,167.577,355.922z M155.365,299.243
		c-3.257,0-5.735,1.065-7.435,3.196c-1.7,2.131-2.55,5.09-2.55,8.871c0,3.735,0.862,6.754,2.586,9.053
		c1.724,2.299,4.262,3.447,7.615,3.447c3.304,0,5.783-1.148,7.435-3.447s2.479-5.316,2.479-9.053c0-3.735-0.851-6.681-2.55-8.836
		C161.244,300.32,158.717,299.243,155.365,299.243z"/>
	<path fill="#FFFFFF" d="M219.874,305.854c3.831,0,7.015,1.138,9.554,3.412c2.538,2.274,3.807,5.185,3.807,8.728
		c0,3.545-1.27,6.454-3.807,8.729c-2.539,2.274-5.723,3.411-9.554,3.411c-3.879,0-7.076-1.149-9.59-3.448
		c-2.514-2.299-3.771-5.194-3.771-8.691c0-3.495,1.257-6.393,3.771-8.691C212.798,307.005,215.995,305.854,219.874,305.854z
		 M219.874,363.177c3.831,0,7.015,1.14,9.554,3.412c2.538,2.274,3.807,5.185,3.807,8.729c0,3.543-1.27,6.453-3.807,8.728
		c-2.539,2.274-5.723,3.412-9.554,3.412c-3.879,0-7.076-1.149-9.59-3.448c-2.514-2.299-3.771-5.195-3.771-8.691
		c0-3.494,1.257-6.394,3.771-8.691C212.798,364.329,215.995,363.177,219.874,363.177z"/>
	<path fill="#FFFFFF" d="M321.232,343.925c0,14.128-3.173,25.023-9.519,32.687c-6.347,7.662-15.29,11.492-26.831,11.492
		c-11.637,0-20.641-3.854-27.009-11.564c-6.37-7.71-9.554-18.58-9.554-32.613v-19.107c0-14.127,3.172-25.021,9.518-32.686
		c6.345-7.662,15.313-11.494,26.902-11.494s20.568,3.856,26.938,11.566c6.367,7.711,9.554,18.604,9.554,32.686V343.925z
		 M297.023,321.729c0-7.519-0.981-13.133-2.944-16.846c-1.964-3.711-5.077-5.566-9.339-5.566c-4.166,0-7.195,1.724-9.088,5.172
		c-1.893,3.447-2.908,8.669-3.053,15.66v26.723c0,7.807,0.98,13.518,2.945,17.133c1.963,3.616,5.075,5.424,9.338,5.424
		c4.118,0,7.159-1.76,9.124-5.279c1.964-3.521,2.97-9.039,3.017-16.559V321.729z"/>
	<path fill="#FFFFFF" d="M406.43,343.925c0,14.128-3.173,25.023-9.518,32.687c-6.347,7.662-15.29,11.492-26.831,11.492
		c-11.637,0-20.642-3.854-27.01-11.564c-6.37-7.71-9.555-18.58-9.555-32.613v-19.107c0-14.127,3.173-25.021,9.519-32.686
		c6.346-7.662,15.313-11.494,26.902-11.494c11.589,0,20.567,3.856,26.938,11.566c6.368,7.711,9.554,18.604,9.554,32.686
		L406.43,343.925L406.43,343.925z M382.222,321.729c0-7.519-0.981-13.133-2.944-16.846c-1.966-3.711-5.077-5.566-9.34-5.566
		c-4.165,0-7.194,1.724-9.087,5.172c-1.893,3.447-2.908,8.669-3.053,15.66v26.723c0,7.807,0.98,13.518,2.945,17.133
		c1.963,3.616,5.075,5.424,9.338,5.424c4.118,0,7.159-1.76,9.123-5.279c1.963-3.521,2.969-9.039,3.018-16.559V321.729z"/>
</g>
<g>
	<path fill="#FFFFFF" d="M158.633,246.353h-19.001l-3.612,10.837h-11.523l19.579-52.595h10.042l19.687,52.595h-11.523
		L158.633,246.353z M142.559,237.575h13.148l-6.61-19.687L142.559,237.575z"/>
	<path fill="#FFFFFF" d="M192.877,204.594l13.51,38.146l13.438-38.146h14.232v52.595h-10.873v-14.377l1.084-24.816l-14.196,39.193
		h-7.441l-14.16-39.157l1.083,24.78v14.377h-10.837v-52.595H192.877z"/>
</g>
<g>
	<path fill="#FFFFFF" d="M304.486,452.291v18.531H293.65v-52.596h20.519c3.949,0,7.423,0.724,10.422,2.167
		c2.998,1.445,5.304,3.498,6.917,6.159s2.42,5.689,2.42,9.085c0,5.153-1.764,9.218-5.292,12.191
		c-3.526,2.975-8.41,4.461-14.646,4.461L304.486,452.291L304.486,452.291z M304.486,443.514h9.683c2.865,0,5.051-0.674,6.557-2.022
		c1.505-1.35,2.258-3.274,2.258-5.779c0-2.577-0.759-4.66-2.275-6.249c-1.517-1.59-3.612-2.408-6.285-2.457h-9.935v16.508H304.486z"
		/>
	<path fill="#FFFFFF" d="M355.53,418.228l13.51,38.146l13.438-38.146h14.232v52.596h-10.873v-14.377l1.084-24.816l-14.196,39.193
		h-7.44l-14.16-39.157l1.084,24.78v14.377H341.37v-52.596H355.53L355.53,418.228z"/>
</g>
<line fill="#FFFFFF" stroke="#FFFFFF" stroke-width="10" stroke-miterlimit="10" x1="255.858" y1="223.772" x2="397.736" y2="223.772"/>
<line fill="none" stroke="#E4151A" stroke-width="10" stroke-miterlimit="10" x1="124.241" y1="447.191" x2="266.12" y2="447.191"/>
<g>
	<path fill="#FFFFFF" d="M189.774,89.9c0,5.076-1.257,9.555-3.771,13.434c-2.514,3.879-5.975,6.992-10.38,9.339
		c4.98,2.442,8.931,5.782,11.853,10.021c2.921,4.238,4.382,9.256,4.382,15.051c0,9.338-3.221,16.714-9.662,22.125
		c-6.441,5.412-15.313,8.117-26.615,8.117c-11.35,0-20.306-2.717-26.867-8.153c-6.562-5.435-9.841-12.798-9.841-22.089
		c0-5.604,1.437-10.562,4.31-14.87c2.874-4.312,6.943-7.71,12.212-10.2c-4.454-2.348-7.95-5.46-10.488-9.339
		c-2.539-3.879-3.807-8.356-3.807-13.435c0-9.099,3.089-16.281,9.267-21.551c6.178-5.268,14.511-7.9,24.999-7.9
		c10.583,0,18.965,2.634,25.143,7.9C186.686,73.617,189.774,80.801,189.774,89.9z M167.577,135.803c0-4.311-1.113-7.626-3.34-9.949
		c-2.227-2.322-5.161-3.484-8.8-3.484c-3.64,0-6.585,1.162-8.835,3.484c-2.251,2.323-3.376,5.639-3.376,9.949
		c0,4.166,1.137,7.459,3.412,9.877c2.274,2.419,5.255,3.628,8.944,3.628c3.592,0,6.489-1.196,8.692-3.592
		C166.475,143.32,167.577,140.017,167.577,135.803z M155.365,79.124c-3.257,0-5.735,1.065-7.435,3.196
		c-1.7,2.131-2.55,5.09-2.55,8.871c0,3.735,0.862,6.754,2.586,9.053c1.724,2.299,4.262,3.447,7.615,3.447
		c3.304,0,5.783-1.148,7.435-3.447s2.479-5.316,2.479-9.053c0-3.735-0.851-6.681-2.55-8.836
		C161.244,80.201,158.717,79.124,155.365,79.124z"/>
	<path fill="#FFFFFF" d="M219.874,85.734c3.831,0,7.015,1.138,9.554,3.412c2.538,2.274,3.807,5.185,3.807,8.728
		c0,3.545-1.27,6.454-3.807,8.729c-2.539,2.274-5.723,3.411-9.554,3.411c-3.879,0-7.076-1.149-9.59-3.448
		c-2.514-2.299-3.771-5.194-3.771-8.691c0-3.495,1.257-6.393,3.771-8.691C212.798,86.886,215.995,85.734,219.874,85.734z
		 M219.874,143.058c3.831,0,7.015,1.14,9.554,3.412c2.538,2.274,3.807,5.185,3.807,8.729c0,3.543-1.27,6.453-3.807,8.728
		c-2.539,2.274-5.723,3.412-9.554,3.412c-3.879,0-7.076-1.149-9.59-3.448c-2.514-2.299-3.771-5.195-3.771-8.691
		c0-3.494,1.257-6.394,3.771-8.691C212.798,144.21,215.995,143.058,219.874,143.058z"/>
	<path fill="#FFFFFF" d="M321.232,123.806c0,14.128-3.173,25.023-9.519,32.687c-6.347,7.662-15.29,11.492-26.831,11.492
		c-11.637,0-20.641-3.854-27.009-11.564c-6.37-7.71-9.554-18.58-9.554-32.613v-19.107c0-14.127,3.172-25.021,9.518-32.686
		c6.346-7.662,15.313-11.494,26.902-11.494s20.568,3.856,26.938,11.566c6.367,7.711,9.554,18.604,9.554,32.686V123.806z
		 M297.023,101.609c0-7.519-0.981-13.133-2.944-16.846c-1.964-3.711-5.077-5.566-9.339-5.566c-4.166,0-7.195,1.724-9.088,5.172
		c-1.893,3.447-2.908,8.669-3.053,15.66v26.723c0,7.807,0.98,13.518,2.945,17.133c1.963,3.616,5.075,5.424,9.338,5.424
		c4.118,0,7.159-1.76,9.124-5.279c1.964-3.521,2.97-9.039,3.017-16.559V101.609z"/>
	<path fill="#FFFFFF" d="M406.43,123.806c0,14.128-3.173,25.023-9.518,32.687c-6.347,7.662-15.29,11.492-26.831,11.492
		c-11.637,0-20.642-3.854-27.01-11.564c-6.37-7.71-9.555-18.58-9.555-32.613v-19.107c0-14.127,3.173-25.021,9.519-32.686
		c6.346-7.662,15.313-11.494,26.902-11.494c11.589,0,20.567,3.856,26.938,11.566c6.368,7.711,9.554,18.604,9.554,32.686
		L406.43,123.806L406.43,123.806z M382.222,101.609c0-7.519-0.981-13.133-2.944-16.846c-1.966-3.711-5.077-5.566-9.34-5.566
		c-4.165,0-7.194,1.724-9.087,5.172c-1.893,3.447-2.908,8.669-3.053,15.66v26.723c0,7.807,0.98,13.518,2.945,17.133
		c1.963,3.616,5.075,5.424,9.338,5.424c4.118,0,7.159-1.76,9.123-5.279c1.963-3.521,2.969-9.039,3.018-16.559V101.609z"/>
</g>
</svg>
